<svg width="42" height="42" viewBox="0 0 42 42" fill="none" xmlns="http://www.w3.org/2000/svg">
<path d="M39 0H3C1.3125 0 0 1.40625 0 3V39C0 40.6875 1.3125 42 3 42H39C40.5938 42 42 40.6875 42 39V3C42 1.40625 40.5938 0 39 0ZM33 24.1875C33 28.7812 31.875 31.875 23.25 31.875H21.6562C17.5312 31.875 15.75 30.5625 15 28.3125V31.5H9V9.75H15V16.7812H15.0938C15.4688 13.9688 18.75 13.125 21.5625 13.125H23.25C31.875 13.125 32.9062 16.2188 32.9062 20.9062V24.1875H33ZM27 21.4688C27 19.4062 26.625 18.2812 23.3438 18.2812H19.125C16.4062 18.2812 15 18.9375 15 21.6562V23.4375C15 26.1562 16.4062 26.8125 19.125 26.8125H23.3438C26.625 26.8125 27 25.6875 27 23.625V21.4688Z" fill="#B3DC4B"/>
</svg>
