<svg width="170" height="158" viewBox="0 0 170 158" fill="none" xmlns="http://www.w3.org/2000/svg">
<g style="mix-blend-mode:multiply" opacity="0.83">
<g style="mix-blend-mode:multiply" opacity="0.26">
<path d="M87.0473 158C132.642 158 169.604 122.63 169.604 79C169.604 35.3695 132.642 0 87.0473 0C41.4524 0 4.49048 35.3695 4.49048 79C4.49048 122.63 41.4524 158 87.0473 158Z" fill="white"/>
</g>
<g style="mix-blend-mode:multiply" opacity="0.27">
<path d="M87.105 157.615C132.487 157.615 169.277 122.418 169.277 79C169.277 35.5819 132.487 0.384628 87.105 0.384628C41.7226 0.384628 4.93298 35.5819 4.93298 79C4.93298 122.418 41.7226 157.615 87.105 157.615Z" fill="#FEFEFE"/>
</g>
<g style="mix-blend-mode:multiply" opacity="0.29">
<path d="M87.1627 157.231C132.322 157.231 168.931 122.206 168.931 79C168.931 35.7943 132.322 0.769226 87.1627 0.769226C42.0035 0.769226 5.39471 35.7943 5.39471 79C5.39471 122.206 42.0035 157.231 87.1627 157.231Z" fill="#FDFDFD"/>
</g>
<g style="mix-blend-mode:multiply" opacity="0.3">
<path d="M87.2012 156.846C132.137 156.846 168.565 121.993 168.565 79C168.565 36.0068 132.137 1.15385 87.2012 1.15385C42.2651 1.15385 5.83722 36.0068 5.83722 79C5.83722 121.993 42.2651 156.846 87.2012 156.846Z" fill="#FCFCFC"/>
</g>
<g style="mix-blend-mode:multiply" opacity="0.31">
<path d="M87.2589 156.481C131.972 156.481 168.219 121.791 168.219 79C168.219 36.2086 131.972 1.51924 87.2589 1.51924C42.546 1.51924 6.29901 36.2086 6.29901 79C6.29901 121.791 42.546 156.481 87.2589 156.481Z" fill="#FBFBFB"/>
</g>
<g style="mix-blend-mode:multiply" opacity="0.32">
<path d="M87.3167 156.096C131.817 156.096 167.892 121.579 167.892 79C167.892 36.421 131.817 1.90384 87.3167 1.90384C42.8162 1.90384 6.74152 36.421 6.74152 79C6.74152 121.579 42.8162 156.096 87.3167 156.096Z" fill="#FAFAFA"/>
</g>
<g style="mix-blend-mode:multiply" opacity="0.34">
<path d="M87.3551 155.712C131.632 155.712 167.526 121.367 167.526 79C167.526 36.6334 131.632 2.28847 87.3551 2.28847C43.0779 2.28847 7.18402 36.6334 7.18402 79C7.18402 121.367 43.0779 155.712 87.3551 155.712Z" fill="#F9F9F9"/>
</g>
<g style="mix-blend-mode:multiply" opacity="0.35">
<path d="M87.4128 155.327C131.467 155.327 167.18 121.154 167.18 79C167.18 36.8458 131.467 2.6731 87.4128 2.6731C43.3587 2.6731 7.64575 36.8458 7.64575 79C7.64575 121.154 43.3587 155.327 87.4128 155.327Z" fill="#F8F8F8"/>
</g>
<g style="mix-blend-mode:multiply" opacity="0.36">
<path d="M87.4706 154.942C131.312 154.942 166.853 120.942 166.853 79C166.853 37.0582 131.312 3.05769 87.4706 3.05769C43.6289 3.05769 8.08826 37.0582 8.08826 79C8.08826 120.942 43.6289 154.942 87.4706 154.942Z" fill="#F7F7F7"/>
</g>
<g style="mix-blend-mode:multiply" opacity="0.37">
<path d="M87.509 154.558C131.128 154.558 166.487 120.729 166.487 79C166.487 37.2706 131.128 3.44232 87.509 3.44232C43.8905 3.44232 8.53076 37.2706 8.53076 79C8.53076 120.729 43.8905 154.558 87.509 154.558Z" fill="#F6F6F6"/>
</g>
<g style="mix-blend-mode:multiply" opacity="0.39">
<path d="M87.5668 154.173C130.962 154.173 166.141 120.517 166.141 79C166.141 37.4831 130.962 3.82692 87.5668 3.82692C44.1714 3.82692 8.99255 37.4831 8.99255 79C8.99255 120.517 44.1714 154.173 87.5668 154.173Z" fill="#F5F5F5"/>
</g>
<g style="mix-blend-mode:multiply" opacity="0.4">
<path d="M87.6053 153.808C130.777 153.808 165.775 120.315 165.775 79C165.775 37.6848 130.777 4.19231 87.6053 4.19231C44.433 4.19231 9.43506 37.6848 9.43506 79C9.43506 120.315 44.433 153.808 87.6053 153.808Z" fill="#F4F4F4"/>
</g>
<g style="mix-blend-mode:multiply" opacity="0.41">
<path d="M87.663 153.423C130.623 153.423 165.448 120.103 165.448 79C165.448 37.8973 130.623 4.57693 87.663 4.57693C44.7033 4.57693 9.87756 37.8973 9.87756 79C9.87756 120.103 44.7033 153.423 87.663 153.423Z" fill="#F3F3F3"/>
</g>
<g style="mix-blend-mode:multiply" opacity="0.43">
<path d="M87.7207 153.038C130.457 153.038 165.102 119.89 165.102 79C165.102 38.1097 130.457 4.96153 87.7207 4.96153C44.9841 4.96153 10.3393 38.1097 10.3393 79C10.3393 119.89 44.9841 153.038 87.7207 153.038Z" fill="#F2F2F2"/>
</g>
<g style="mix-blend-mode:multiply" opacity="0.44">
<path d="M87.7592 152.654C130.273 152.654 164.737 119.678 164.737 79C164.737 38.3221 130.273 5.34615 87.7592 5.34615C45.2457 5.34615 10.7818 38.3221 10.7818 79C10.7818 119.678 45.2457 152.654 87.7592 152.654Z" fill="#F1F1F1"/>
</g>
<g style="mix-blend-mode:multiply" opacity="0.45">
<path d="M87.8168 152.269C130.107 152.269 164.39 119.465 164.39 79C164.39 38.5345 130.107 5.73077 87.8168 5.73077C45.5266 5.73077 11.2435 38.5345 11.2435 79C11.2435 119.465 45.5266 152.269 87.8168 152.269Z" fill="#F0F0F0"/>
</g>
<g style="mix-blend-mode:multiply" opacity="0.46">
<path d="M87.8746 151.885C129.952 151.885 164.063 119.253 164.063 79C164.063 38.7469 129.952 6.11537 87.8746 6.11537C45.7969 6.11537 11.6861 38.7469 11.6861 79C11.6861 119.253 45.7969 151.885 87.8746 151.885Z" fill="#EFEFEF"/>
</g>
<g style="mix-blend-mode:multiply" opacity="0.48">
<path d="M87.9131 151.519C129.768 151.519 163.698 119.051 163.698 79C163.698 38.9487 129.768 6.48076 87.9131 6.48076C46.0585 6.48076 12.1286 38.9487 12.1286 79C12.1286 119.051 46.0585 151.519 87.9131 151.519Z" fill="#EEEEEE"/>
</g>
<g style="mix-blend-mode:multiply" opacity="0.49">
<path d="M87.9708 151.135C129.602 151.135 163.351 118.839 163.351 79C163.351 39.1612 129.602 6.86539 87.9708 6.86539C46.3393 6.86539 12.5903 39.1612 12.5903 79C12.5903 118.839 46.3393 151.135 87.9708 151.135Z" fill="#EDEDED"/>
</g>
<g style="mix-blend-mode:multiply" opacity="0.5">
<path d="M88.0285 150.75C129.447 150.75 163.024 118.626 163.024 79C163.024 39.3736 129.447 7.24998 88.0285 7.24998C46.6095 7.24998 13.0328 39.3736 13.0328 79C13.0328 118.626 46.6095 150.75 88.0285 150.75Z" fill="#ECECEC"/>
</g>
<g style="mix-blend-mode:multiply" opacity="0.51">
<path d="M88.067 150.365C129.263 150.365 162.659 118.414 162.659 79C162.659 39.586 129.263 7.63461 88.067 7.63461C46.8712 7.63461 13.4753 39.586 13.4753 79C13.4753 118.414 46.8712 150.365 88.067 150.365Z" fill="#EBEBEB"/>
</g>
<g style="mix-blend-mode:multiply" opacity="0.53">
<path d="M88.1247 149.981C129.097 149.981 162.312 118.202 162.312 79C162.312 39.7984 129.097 8.01924 88.1247 8.01924C47.152 8.01924 13.9371 39.7984 13.9371 79C13.9371 118.202 47.152 149.981 88.1247 149.981Z" fill="#EAEAEA"/>
</g>
<g style="mix-blend-mode:multiply" opacity="0.54">
<path d="M88.1824 149.596C128.932 149.596 161.966 117.989 161.966 79C161.966 40.0108 128.932 8.40384 88.1824 8.40384C47.4328 8.40384 14.3988 40.0108 14.3988 79C14.3988 117.989 47.4328 149.596 88.1824 149.596Z" fill="#E9E9E9"/>
</g>
<g style="mix-blend-mode:multiply" opacity="0.55">
<path d="M88.2209 149.231C128.758 149.231 161.62 117.787 161.62 79C161.62 40.2126 128.758 8.76923 88.2209 8.76923C47.6838 8.76923 14.8221 40.2126 14.8221 79C14.8221 117.787 47.6838 149.231 88.2209 149.231Z" fill="#E8E8E8"/>
</g>
<g style="mix-blend-mode:multiply" opacity="0.56">
<path d="M88.2786 148.846C128.593 148.846 161.273 117.575 161.273 79C161.273 40.425 128.593 9.15385 88.2786 9.15385C47.9647 9.15385 15.2839 40.425 15.2839 79C15.2839 117.575 47.9647 148.846 88.2786 148.846Z" fill="#E7E7E7"/>
</g>
<g style="mix-blend-mode:multiply" opacity="0.58">
<path d="M88.3363 148.462C128.427 148.462 160.927 117.363 160.927 79C160.927 40.6374 128.427 9.53845 88.3363 9.53845C48.2456 9.53845 15.7456 40.6374 15.7456 79C15.7456 117.363 48.2456 148.462 88.3363 148.462Z" fill="#E6E6E6"/>
</g>
<g style="mix-blend-mode:multiply" opacity="0.59">
<path d="M88.3748 148.077C128.242 148.077 160.562 117.15 160.562 79C160.562 40.8499 128.242 9.92308 88.3748 9.92308C48.5072 9.92308 16.1881 40.8499 16.1881 79C16.1881 117.15 48.5072 148.077 88.3748 148.077Z" fill="#E6E6E6"/>
</g>
<g style="mix-blend-mode:multiply" opacity="0.6">
<path d="M88.4325 147.692C128.088 147.692 160.234 116.938 160.234 79C160.234 41.0623 128.088 10.3077 88.4325 10.3077C48.7774 10.3077 16.6306 41.0623 16.6306 79C16.6306 116.938 48.7774 147.692 88.4325 147.692Z" fill="#E5E5E5"/>
</g>
<g style="mix-blend-mode:multiply" opacity="0.62">
<path d="M88.4902 147.308C127.922 147.308 159.888 116.725 159.888 79C159.888 41.2747 127.922 10.6923 88.4902 10.6923C49.0583 10.6923 17.0923 41.2747 17.0923 79C17.0923 116.725 49.0583 147.308 88.4902 147.308Z" fill="#E4E4E4"/>
</g>
<g style="mix-blend-mode:multiply" opacity="0.63">
<path d="M88.5287 146.923C127.738 146.923 159.523 116.513 159.523 79C159.523 41.4871 127.738 11.0769 88.5287 11.0769C49.3199 11.0769 17.5349 41.4871 17.5349 79C17.5349 116.513 49.3199 146.923 88.5287 146.923Z" fill="#E3E3E3"/>
</g>
<g style="mix-blend-mode:multiply" opacity="0.64">
<path d="M88.5864 146.558C127.583 146.558 159.195 116.311 159.195 79C159.195 41.6889 127.583 11.4423 88.5864 11.4423C49.5901 11.4423 17.9774 41.6889 17.9774 79C17.9774 116.311 49.5901 146.558 88.5864 146.558Z" fill="#E2E2E2"/>
</g>
<g style="mix-blend-mode:multiply" opacity="0.65">
<path d="M88.6442 146.173C127.417 146.173 158.849 116.099 158.849 79C158.849 41.9013 127.417 11.8269 88.6442 11.8269C49.871 11.8269 18.4391 41.9013 18.4391 79C18.4391 116.099 49.871 146.173 88.6442 146.173Z" fill="#E1E1E1"/>
</g>
<g style="mix-blend-mode:multiply" opacity="0.67">
<path d="M88.6827 145.788C127.233 145.788 158.484 115.886 158.484 79C158.484 42.1138 127.233 12.2115 88.6827 12.2115C50.1326 12.2115 18.8817 42.1138 18.8817 79C18.8817 115.886 50.1326 145.788 88.6827 145.788Z" fill="#E0E0E0"/>
</g>
<g style="mix-blend-mode:multiply" opacity="0.68">
<path d="M88.7404 145.404C127.067 145.404 158.137 115.674 158.137 79C158.137 42.3262 127.067 12.5961 88.7404 12.5961C50.4135 12.5961 19.3434 42.3262 19.3434 79C19.3434 115.674 50.4135 145.404 88.7404 145.404Z" fill="#DFDFDF"/>
</g>
<g style="mix-blend-mode:multiply" opacity="0.69">
<path d="M88.7981 145.019C126.912 145.019 157.81 115.461 157.81 79C157.81 42.5386 126.912 12.9808 88.7981 12.9808C50.6837 12.9808 19.7859 42.5386 19.7859 79C19.7859 115.461 50.6837 145.019 88.7981 145.019Z" fill="#DEDEDE"/>
</g>
<g style="mix-blend-mode:multiply" opacity="0.7">
<path d="M88.8365 144.635C126.728 144.635 157.445 115.249 157.445 79C157.445 42.751 126.728 13.3654 88.8365 13.3654C50.9453 13.3654 20.2284 42.751 20.2284 79C20.2284 115.249 50.9453 144.635 88.8365 144.635Z" fill="#DDDDDD"/>
</g>
<g style="mix-blend-mode:multiply" opacity="0.72">
<path d="M88.8943 144.269C126.562 144.269 157.098 115.047 157.098 79C157.098 42.9528 126.562 13.7308 88.8943 13.7308C51.2262 13.7308 20.6902 42.9528 20.6902 79C20.6902 115.047 51.2262 144.269 88.8943 144.269Z" fill="#DCDCDC"/>
</g>
<g style="mix-blend-mode:multiply" opacity="0.73">
<path d="M88.952 143.885C126.397 143.885 156.752 114.835 156.752 79C156.752 43.1652 126.397 14.1154 88.952 14.1154C51.507 14.1154 21.1519 43.1652 21.1519 79C21.1519 114.835 51.507 143.885 88.952 143.885Z" fill="#DBDBDB"/>
</g>
<g style="mix-blend-mode:multiply" opacity="0.74">
<path d="M88.9905 143.5C126.223 143.5 156.406 114.622 156.406 79C156.406 43.3776 126.223 14.5 88.9905 14.5C51.7581 14.5 21.5752 43.3776 21.5752 79C21.5752 114.622 51.7581 143.5 88.9905 143.5Z" fill="#DADADA"/>
</g>
<g style="mix-blend-mode:multiply" opacity="0.76">
<path d="M89.0482 143.115C126.058 143.115 156.059 114.41 156.059 79C156.059 43.5901 126.058 14.8846 89.0482 14.8846C52.0389 14.8846 22.0369 43.5901 22.0369 79C22.0369 114.41 52.0389 143.115 89.0482 143.115Z" fill="#D9D9D9"/>
</g>
<g style="mix-blend-mode:multiply" opacity="0.77">
<path d="M89.0867 142.731C125.873 142.731 155.694 114.198 155.694 79C155.694 43.8025 125.873 15.2692 89.0867 15.2692C52.3005 15.2692 22.4794 43.8025 22.4794 79C22.4794 114.198 52.3005 142.731 89.0867 142.731Z" fill="#D8D8D8"/>
</g>
<g style="mix-blend-mode:multiply" opacity="0.78">
<path d="M89.1444 142.346C125.718 142.346 155.367 113.985 155.367 79C155.367 44.0149 125.718 15.6539 89.1444 15.6539C52.5707 15.6539 22.9219 44.0149 22.9219 79C22.9219 113.985 52.5707 142.346 89.1444 142.346Z" fill="#D7D7D7"/>
</g>
<g style="mix-blend-mode:multiply" opacity="0.79">
<path d="M89.2021 141.981C125.553 141.981 155.021 113.783 155.021 79C155.021 44.2167 125.553 16.0192 89.2021 16.0192C52.8516 16.0192 23.3837 44.2167 23.3837 79C23.3837 113.783 52.8516 141.981 89.2021 141.981Z" fill="#D6D6D6"/>
</g>
<g style="mix-blend-mode:multiply" opacity="0.81">
<path d="M89.2406 141.596C125.368 141.596 154.655 113.571 154.655 79C154.655 44.4291 125.368 16.4038 89.2406 16.4038C53.1133 16.4038 23.8262 44.4291 23.8262 79C23.8262 113.571 53.1133 141.596 89.2406 141.596Z" fill="#D5D5D5"/>
</g>
<g style="mix-blend-mode:multiply" opacity="0.82">
<path d="M89.2983 141.212C125.203 141.212 154.309 113.358 154.309 79C154.309 44.6415 125.203 16.7885 89.2983 16.7885C53.3941 16.7885 24.288 44.6415 24.288 79C24.288 113.358 53.3941 141.212 89.2983 141.212Z" fill="#D4D4D4"/>
</g>
<g style="mix-blend-mode:multiply" opacity="0.83">
<path d="M89.356 140.827C125.048 140.827 153.982 113.146 153.982 79C153.982 44.8539 125.048 17.1731 89.356 17.1731C53.6643 17.1731 24.7305 44.8539 24.7305 79C24.7305 113.146 53.6643 140.827 89.356 140.827Z" fill="#D3D3D3"/>
</g>
<g style="mix-blend-mode:multiply" opacity="0.84">
<path d="M89.3945 140.442C124.863 140.442 153.616 112.934 153.616 79C153.616 45.0663 124.863 17.5577 89.3945 17.5577C53.9259 17.5577 25.173 45.0663 25.173 79C25.173 112.934 53.9259 140.442 89.3945 140.442Z" fill="#D2D2D2"/>
</g>
<g style="mix-blend-mode:multiply" opacity="0.86">
<path d="M89.4522 140.058C124.698 140.058 153.27 112.721 153.27 79C153.27 45.2788 124.698 17.9423 89.4522 17.9423C54.2068 17.9423 25.6347 45.2788 25.6347 79C25.6347 112.721 54.2068 140.058 89.4522 140.058Z" fill="#D1D1D1"/>
</g>
<g style="mix-blend-mode:multiply" opacity="0.87">
<path d="M89.5099 139.692C124.532 139.692 152.923 112.519 152.923 79C152.923 45.4806 124.532 18.3077 89.5099 18.3077C54.4876 18.3077 26.0964 45.4806 26.0964 79C26.0964 112.519 54.4876 139.692 89.5099 139.692Z" fill="#D0D0D0"/>
</g>
<g style="mix-blend-mode:multiply" opacity="0.88">
<path d="M89.5484 139.308C124.358 139.308 152.577 112.307 152.577 79C152.577 45.693 124.358 18.6923 89.5484 18.6923C54.7386 18.6923 26.5197 45.693 26.5197 79C26.5197 112.307 54.7386 139.308 89.5484 139.308Z" fill="#CFCFCF"/>
</g>
<g style="mix-blend-mode:multiply" opacity="0.9">
<path d="M89.6062 138.923C124.193 138.923 152.231 112.095 152.231 79C152.231 45.9054 124.193 19.0769 89.6062 19.0769C55.0195 19.0769 26.9815 45.9054 26.9815 79C26.9815 112.095 55.0195 138.923 89.6062 138.923Z" fill="#CECECE"/>
</g>
<g style="mix-blend-mode:multiply" opacity="0.91">
<path d="M89.6639 138.538C124.027 138.538 151.885 111.882 151.885 79C151.885 46.1178 124.027 19.4615 89.6639 19.4615C55.3004 19.4615 27.4432 46.1178 27.4432 79C27.4432 111.882 55.3004 138.538 89.6639 138.538Z" fill="#CDCDCD"/>
</g>
<g style="mix-blend-mode:multiply" opacity="0.92">
<path d="M89.7023 138.154C123.853 138.154 151.538 111.67 151.538 79C151.538 46.3302 123.853 19.8462 89.7023 19.8462C55.5513 19.8462 27.8665 46.3302 27.8665 79C27.8665 111.67 55.5513 138.154 89.7023 138.154Z" fill="#CCCCCC"/>
</g>
</g>
<g style="mix-blend-mode:multiply" opacity="0.28">
<path d="M46.1441 12.0577C29.177 19.3868 15.5033 32.7032 7.73192 49.4661C-0.0394715 66.2291 -1.36454 85.2651 4.00953 102.942C5.01569 106.232 6.25661 109.445 7.72276 112.558C7.72276 93.0769 11.032 60.6346 27.6934 35.2115C33.1299 26.9513 39.3055 19.2016 46.1441 12.0577Z" fill="#FEFEFE"/>
</g>
<g style="mix-blend-mode:multiply" opacity="0.28">
<path d="M36.2165 17.3077C21.8 26.2406 10.8449 39.8012 5.14464 55.7692C-0.330305 70.95 -0.728632 87.4967 4.00951 102.923C4.93301 83.3654 9.28114 55.9808 23.7108 33.8462C27.5168 28.0686 31.6942 22.5442 36.2165 17.3077Z" fill="#FEFEFE"/>
</g>
<g style="mix-blend-mode:multiply" opacity="0.28">
<path d="M22.5372 28.1539C14.7901 35.9778 8.85323 45.4042 5.14464 55.7692C1.52937 65.7934 0.10573 76.4756 0.96966 87.0962C3.18221 69.8077 8.31916 49.7115 19.4396 32.6923C20.4593 31.1539 21.4982 29.6539 22.5372 28.1539Z" fill="#FCFCFC"/>
</g>
<path d="M147.844 106.365C153.308 91.0434 153.66 74.3644 148.846 58.8262C144.031 43.2879 134.311 29.7266 121.14 20.1731C105.768 9.06888 86.81 4.08472 67.9617 6.1923C53.8999 7.75568 40.5587 13.2304 29.4543 21.9942C18.35 30.7581 9.92771 42.4597 5.14467 55.7692C1.80764 65.1052 0.34915 75.0083 0.853004 84.9095C1.35686 94.8106 3.81312 104.515 8.08067 113.464C12.3482 122.413 18.3429 130.432 25.7203 137.058C33.0977 143.685 41.7124 148.789 51.0694 152.077C52.5509 152.596 54.0515 153.077 55.533 153.5C74.0364 158.83 93.8755 156.925 111.025 148.172C128.176 139.419 141.352 124.472 147.883 106.365H147.844Z" fill="url(#paint0_linear_19_1703)"/>
<path style="mix-blend-mode:multiply" opacity="0.44" d="M101.265 11.8846C82.8958 5.31794 62.6689 6.31418 45.0343 14.6541C27.3996 22.9941 13.8018 37.9946 7.23215 56.3558C0.662506 74.7169 1.65919 94.9346 10.0029 112.561C18.3467 130.188 33.3541 143.779 51.7236 150.346C53.128 150.846 54.5903 151.327 56.0717 151.75C74.1078 156.917 93.434 155.042 110.14 146.506C126.845 137.969 139.683 123.408 146.055 105.769C151.495 90.6842 151.772 74.2211 146.844 58.9615C143.409 48.1247 137.504 38.2325 129.595 30.0635C121.686 21.8945 111.989 15.6717 101.265 11.8846Z" fill="url(#paint1_radial_19_1703)"/>
<g style="mix-blend-mode:multiply" opacity="0.96">
<path d="M100.669 13.6731C91.784 10.3756 82.3327 8.87337 72.8627 9.25343C63.3927 9.63349 54.0923 11.8883 45.5005 15.8871C36.9087 19.886 29.1962 25.5494 22.81 32.5492C16.4238 39.549 11.4909 47.746 8.29712 56.6653C5.10333 65.5845 3.71215 75.0486 4.20421 84.5091C4.69627 93.9696 7.06178 103.238 11.1637 111.779C15.2656 120.319 21.0223 127.96 28.1002 134.26C35.1781 140.56 43.4366 145.394 52.3969 148.481C53.763 148.981 55.1867 149.423 56.6296 149.846C74.1886 154.873 93.002 153.048 109.267 144.741C125.531 136.434 138.034 122.264 144.246 105.096C149.553 90.4466 149.85 74.452 145.093 59.6154C141.753 49.0422 136.002 39.3888 128.293 31.4162C120.583 23.4436 111.127 17.3697 100.669 13.6731Z" fill="#FEFEFE"/>
</g>
<g style="mix-blend-mode:multiply" opacity="0.28">
<path d="M99.9955 15.3846C91.3698 12.2998 82.2207 10.9434 73.0705 11.3928C63.9204 11.8423 54.9484 14.0887 46.6668 18.004C38.3852 21.9192 30.9563 27.4266 24.8041 34.2115C18.6519 40.9965 13.8969 48.9263 10.8107 57.5481C7.7245 66.1699 6.36748 75.3148 6.81711 84.4608C7.26674 93.6068 9.51423 102.575 13.4313 110.853C17.3483 119.13 22.8581 126.556 29.6462 132.705C36.4343 138.855 44.3677 143.607 52.9934 146.692C54.3209 147.173 55.7254 147.615 57.1299 148.019C74.2271 152.926 92.5507 151.156 108.392 143.07C124.234 134.983 136.41 121.183 142.457 104.462C147.625 90.1688 147.909 74.5674 143.265 60.0962C140.003 49.8064 134.398 40.4132 126.89 32.655C119.382 24.8968 110.176 18.9851 99.9955 15.3846Z" fill="#FEFEFE"/>
</g>
<g style="mix-blend-mode:multiply" opacity="0.28">
<path d="M99.3414 17.3077C90.8949 14.0173 81.8741 12.4528 72.8123 12.7069C63.7505 12.961 54.8317 15.0283 46.583 18.7869C38.3343 22.5454 30.9232 27.9187 24.7877 34.5893C18.6523 41.2598 13.917 49.0921 10.8619 57.6233C7.80679 66.1544 6.49381 75.2112 7.00059 84.2582C7.50736 93.3053 9.82361 102.159 13.8124 110.296C17.8012 118.433 23.3815 125.688 30.2236 131.632C37.0657 137.576 45.0306 142.089 53.6475 144.904C54.9366 145.365 56.2833 145.808 57.6493 146.192C74.2772 150.969 92.0995 149.252 107.509 141.39C122.919 133.528 134.764 120.108 140.649 103.846C145.685 89.9458 145.963 74.7673 141.437 60.6923C138.255 50.6995 132.797 41.5808 125.493 34.0528C118.188 26.5249 109.237 20.793 99.3414 17.3077Z" fill="#FEFEFE"/>
</g>
<g style="mix-blend-mode:multiply" opacity="0.28">
<path d="M98.745 19.0385C82.2839 13.145 64.1547 14.0292 48.3458 21.4964C32.5368 28.9636 20.3431 42.4021 14.447 58.8558C8.55089 75.3094 9.43543 93.4303 16.906 109.232C24.3766 125.034 37.8213 137.222 54.2824 143.115C55.533 143.558 56.8605 143.981 58.1303 144.365C74.304 149.016 91.6413 147.348 106.631 139.699C121.62 132.051 133.141 118.994 138.859 103.173C143.745 89.6679 144.016 74.9252 139.629 61.25C136.536 51.5375 131.235 42.6726 124.142 35.3494C117.049 28.0262 108.357 22.4435 98.745 19.0385Z" fill="#FEFEFE"/>
</g>
<g style="mix-blend-mode:multiply" opacity="0.28">
<path d="M98.0715 20.8269C90.1251 17.8587 81.6677 16.4984 73.1908 16.8251C64.7139 17.1519 56.3865 19.159 48.6923 22.7301C40.9981 26.3011 34.0905 31.3648 28.3709 37.627C22.6513 43.8892 18.2337 51.225 15.3746 59.2082C12.5156 67.1915 11.2722 75.6631 11.7167 84.1307C12.1611 92.5984 14.2846 100.893 17.9637 108.534C21.6428 116.174 26.8041 123.008 33.1479 128.637C39.4917 134.267 46.8915 138.58 54.9173 141.327C56.1486 141.769 57.4184 142.173 58.7652 142.538C74.464 147.046 91.2898 145.421 105.836 137.995C120.381 130.568 131.56 117.894 137.109 102.538C141.863 89.4256 142.127 75.1059 137.859 61.8269C134.86 52.3779 129.705 43.755 122.8 36.6395C115.895 29.5239 107.429 24.1106 98.0715 20.8269Z" fill="#FEFEFE"/>
</g>
<g style="mix-blend-mode:multiply" opacity="0.28">
<path d="M97.4367 22.6154C89.7539 19.8578 81.6027 18.6407 73.4491 19.0336C65.2955 19.4266 57.2993 21.4218 49.9176 24.9054C42.5359 28.3889 35.9133 33.2924 30.4286 39.3356C24.9439 45.3788 20.7044 52.4432 17.9527 60.125C15.2009 67.8068 13.9907 75.9554 14.3913 84.1049C14.7918 92.2544 16.7953 100.245 20.2872 107.62C23.7791 114.996 28.6909 121.611 34.7419 127.087C40.7929 132.564 47.8644 136.795 55.5522 139.538C56.7451 139.962 57.9956 140.365 59.2462 140.712C74.4809 145.095 90.8128 143.527 104.934 136.325C119.055 129.123 129.91 116.825 135.3 101.923C139.895 89.1972 140.152 75.3101 136.031 62.4231C131.967 49.7817 123.999 38.7535 113.271 30.9231C108.411 27.421 103.08 24.624 97.4367 22.6154Z" fill="#FEFEFE"/>
</g>
<g style="mix-blend-mode:multiply" opacity="0.28">
<path d="M96.821 24.4038C89.3752 21.7383 81.477 20.5647 73.5774 20.9501C65.6779 21.3355 57.9316 23.2724 50.7809 26.6501C36.3395 33.4717 25.2006 45.7482 19.8148 60.7788C14.4289 75.8095 15.2373 92.363 22.062 106.798C28.8868 121.233 41.1688 132.367 56.2063 137.75C57.3607 138.154 58.5535 138.538 59.7656 138.885C74.52 143.103 90.3263 141.565 103.99 134.583C117.654 127.6 128.157 115.694 133.376 101.269C137.848 88.9373 138.099 75.4703 134.088 62.9808C131.28 54.1097 126.454 46.0097 119.988 39.3164C113.522 32.6231 105.592 27.5187 96.821 24.4038Z" fill="#FEFEFE"/>
</g>
<g style="mix-blend-mode:multiply" opacity="0.28">
<path d="M96.1476 26.2115C88.9166 23.5372 81.2267 22.3227 73.523 22.6383C65.8194 22.9539 58.2548 24.7934 51.2669 28.0503C44.2791 31.3071 38.0068 35.9168 32.813 41.6125C27.6191 47.3081 23.6068 53.9768 21.0082 61.2325C18.4096 68.4883 17.2763 76.1871 17.6738 83.8835C18.0714 91.5799 19.992 99.1211 23.3244 106.071C26.6568 113.02 31.3349 119.24 37.088 124.371C42.8411 129.502 49.555 133.441 56.8413 135.962C57.9571 136.365 59.1308 136.731 60.3044 137.077C74.617 141.17 89.9511 139.673 103.201 132.889C116.45 126.105 126.625 114.54 131.664 100.538C135.984 88.594 136.221 75.5548 132.337 63.4615C128.528 51.6344 121.064 41.3194 111.02 34C106.466 30.6969 101.457 28.0733 96.1476 26.2115Z" fill="#FEFEFE"/>
</g>
<g style="mix-blend-mode:multiply" opacity="0.28">
<path d="M95.5127 28C81.4269 22.9583 65.9143 23.7162 52.3875 30.1069C38.8607 36.4975 28.4277 47.9975 23.3838 62.0769C18.3398 76.1563 19.098 91.6619 25.4916 105.183C31.8851 118.703 43.3904 129.131 57.4762 134.173C58.5728 134.558 59.6887 134.923 60.8239 135.25C74.6573 139.213 89.4799 137.777 102.295 131.233C115.11 124.689 124.96 113.526 129.855 100C134.045 88.4423 134.282 75.822 130.529 64.1154C127.885 55.7982 123.347 48.2077 117.271 41.9408C111.195 35.674 103.747 30.9019 95.5127 28Z" fill="#FEFEFE"/>
</g>
<g style="mix-blend-mode:multiply" opacity="0.28">
<path d="M94.897 29.7885C88.1574 27.3754 81.0083 26.3129 73.8578 26.6615C66.7074 27.0101 59.6956 28.763 53.2229 31.8202C40.1508 37.9945 30.0678 49.1064 25.1922 62.7115C20.3167 76.3166 21.0478 91.3004 27.2249 104.367C33.402 117.433 44.519 127.511 58.1303 132.385C59.1692 132.744 60.2467 133.09 61.3625 133.423C74.729 137.254 89.0524 135.869 101.436 129.546C113.819 123.223 123.337 112.436 128.066 99.3654C132.097 88.2138 132.32 76.0418 128.701 64.75C126.164 56.7019 121.789 49.3539 115.922 43.2862C110.055 37.2186 102.858 32.5977 94.897 29.7885Z" fill="#FEFEFE"/>
</g>
<g style="mix-blend-mode:multiply" opacity="0.28">
<path d="M121.14 20.1731C119.831 19.2308 118.485 18.25 117.099 17.4423C107.497 11.3961 96.661 7.57595 85.3881 6.26217C74.1152 4.94839 62.691 6.17435 51.9541 9.85008C41.2171 13.5258 31.4398 19.558 23.3398 27.504C15.2398 35.4499 9.02264 45.1079 5.14462 55.7692C1.81008 65.1029 0.352995 75.003 0.857046 84.9011C1.3611 94.7992 3.81635 104.5 8.08182 113.447C12.3473 122.394 18.3389 130.411 25.7127 137.037C33.0865 143.663 41.6971 148.767 51.0501 152.058C52.5316 152.577 54.0323 153.058 55.5137 153.481C54.6094 137.019 55.4175 96.8462 75.2727 66.5192C87.3215 48.1717 102.916 32.4147 121.14 20.1731Z" fill="#FEFEFE"/>
</g>
<g style="mix-blend-mode:multiply" opacity="0.28">
<path d="M117.099 17.4423C115.772 16.6154 114.444 15.8269 113.078 15.0962C109.501 13.1283 105.769 11.456 101.919 10.0962C83.4042 3.43533 63.0179 4.26955 45.1092 12.4209C27.2006 20.5722 13.1874 35.3953 6.05866 53.7283C-1.07004 72.0613 -0.749848 92.4529 6.95093 110.553C14.6517 128.654 29.1235 143.03 47.2792 150.615C48.5105 151.115 49.7611 151.596 51.1271 152.058C50.1266 136.25 50.5499 95.0769 70.8091 64.1346C82.9405 45.6171 98.6847 29.7362 117.099 17.4423Z" fill="#FEFEFE"/>
</g>
<g style="mix-blend-mode:multiply" opacity="0.28">
<path d="M113.078 15.0962C111.481 14.2115 109.846 13.3846 108.172 12.6346C106.133 11.7115 104.055 10.8462 101.919 10.0962C83.7397 3.52283 63.729 4.17674 46.0177 11.9229C28.3063 19.6691 14.2461 33.9163 6.73919 51.7238C-0.767718 69.5313 -1.14837 89.54 5.67581 107.62C12.5 125.7 26.0081 140.471 43.4121 148.885C44.6947 149.487 45.9773 150.064 47.26 150.615C46.1825 135.635 46.1633 93.3077 66.865 61.6538C78.9844 43.1894 94.7016 27.3551 113.078 15.0962Z" fill="#FEFEFE"/>
</g>
<g style="mix-blend-mode:multiply" opacity="0.28">
<path d="M108.172 12.6346C106.422 11.8269 104.632 11.0962 102.785 10.4231L101.919 10.0962C84.1891 3.56521 64.6523 3.92301 47.1732 11.0988C29.6941 18.2746 15.5457 31.7458 7.52642 48.8479C-0.492862 65.95 -1.79901 85.4376 3.86634 103.456C9.53168 121.475 21.7559 136.712 38.1212 146.154C39.8335 147.154 41.6035 148.077 43.4121 148.981C42.2577 135.365 41.4881 91.2885 62.9209 58.5962C74.8317 40.4483 90.2094 24.8292 108.172 12.6346Z" fill="#FEFEFE"/>
</g>
<g style="mix-blend-mode:multiply" opacity="0.28">
<path d="M102.785 10.4231L101.919 10.0962C99.9955 9.44231 98.2063 8.86539 96.34 8.36539C79.2233 3.61379 60.9778 5.05565 44.8208 12.4367C28.6638 19.8178 15.6329 32.664 8.02601 48.7101C0.419074 64.7563 -1.27537 82.9718 3.24145 100.145C7.75828 117.318 18.1963 132.345 32.7149 142.577C34.4465 143.808 36.255 144.981 38.1212 146.058C36.9861 131.904 36.5628 88.4615 57.6686 56.2692C69.543 38.1688 84.8749 22.5891 102.785 10.4231Z" fill="#FEFEFE"/>
</g>
<g style="mix-blend-mode:multiply" opacity="0.28">
<path d="M96.34 8.36539C93.9141 7.69684 91.4544 7.15762 88.9713 6.75C72.6295 3.93567 55.8154 6.58459 41.132 14.2867C26.4485 21.9887 14.7148 34.3143 7.74748 49.3552C0.780114 64.3961 -1.03229 81.3134 2.59087 97.4878C6.21403 113.662 15.0707 128.192 27.7896 138.827C29.3672 140.135 31.0218 141.385 32.7149 142.673C31.6182 127.846 31.5413 85.3269 52.32 53.5769C63.9414 35.8118 78.889 20.4597 96.34 8.36539Z" fill="#FEFEFE"/>
</g>
<g style="mix-blend-mode:multiply" opacity="0.28">
<path d="M88.9712 6.74999C86.9318 6.40384 84.8925 6.15384 82.8531 5.98076C67.3697 4.59689 51.8369 8.0316 38.3824 15.8144C24.9279 23.5972 14.2096 35.3475 7.69584 49.4557C1.18205 63.5638 -0.808703 79.3399 1.99627 94.623C4.80124 109.906 12.2647 123.948 23.3644 134.827C24.7689 136.212 26.2504 137.558 27.7895 138.846C26.7506 123.654 26.8468 81.5961 47.4331 50.1346C58.5104 33.2573 72.5891 18.5528 88.9712 6.74999Z" fill="#FEFEFE"/>
</g>
<g style="mix-blend-mode:multiply" opacity="0.28">
<path d="M82.8531 5.98078C80.7367 5.76925 78.6396 5.76925 76.5425 5.76925C61.9376 5.7027 47.6279 9.87952 35.354 17.7917C23.0801 25.7039 13.3708 37.0106 7.40695 50.3365C1.44312 63.6624 -0.518237 78.4334 1.76143 92.8529C4.0411 107.272 10.4635 120.719 20.2477 131.558C21.2481 132.673 22.2871 133.75 23.3645 134.808C22.4602 118.231 23.3645 78.25 43.1042 48.0385C53.7827 31.7969 67.2375 17.5605 82.8531 5.98078Z" fill="#FEFEFE"/>
</g>
<g style="mix-blend-mode:multiply" opacity="0.28">
<path d="M76.5425 5.76923C73.7656 5.76851 70.9908 5.9226 68.231 6.23077C54.8692 7.63724 42.1269 12.5905 31.3252 20.5771C20.5236 28.5637 12.0558 39.2928 6.79966 51.6522C1.54356 64.0115 -0.309476 77.5512 1.43266 90.8674C3.1748 104.184 8.44869 116.792 16.7076 127.385C17.8427 128.827 19.0163 130.231 20.2476 131.577C19.4011 114.692 20.4593 75.25 40.0259 45.3462C49.9537 30.2488 62.2893 16.8794 76.5425 5.76923Z" fill="#FEFEFE"/>
</g>
<g style="mix-blend-mode:multiply" opacity="0.28">
<path d="M68.231 6.17307C64.8991 6.53391 61.5953 7.11856 58.3419 7.92306C46.7326 10.734 35.9591 16.2659 26.9116 24.0615C17.8641 31.8572 10.8023 41.6928 6.30971 52.7558C1.81709 63.8188 0.0226149 75.7915 1.07456 87.6847C2.1265 99.578 5.99467 111.05 12.3594 121.154C13.7062 123.288 15.1492 125.346 16.7076 127.346C15.938 110.038 17.2463 71.3269 36.5435 41.8654C45.3206 28.4965 55.9946 16.4735 68.231 6.17307Z" fill="#FEFEFE"/>
</g>
<g style="mix-blend-mode:multiply" opacity="0.28">
<path d="M58.342 7.92307C54.1698 8.94458 50.0948 10.328 46.1633 12.0577C36.9438 16.0321 28.6137 21.8116 21.6644 29.0553C14.7152 36.299 9.28732 44.8602 5.70103 54.234C2.11474 63.6079 0.442603 73.6047 0.783221 83.6348C1.12384 93.665 3.47032 103.525 7.68429 112.635C9.05243 115.575 10.6143 118.421 12.3595 121.154C11.8785 102.731 14.091 66.5384 32.2916 38.6346C39.6834 27.3692 48.4324 17.0547 58.342 7.92307Z" fill="#FEFEFE"/>
</g>
<path style="mix-blend-mode:screen" d="M122.814 22.0961C113.289 15.1938 102.29 10.5974 90.684 8.66929C79.0783 6.74117 67.1833 7.53404 55.9365 10.9854C44.6898 14.4368 34.3988 20.4522 25.875 28.5576C17.3513 36.663 10.8276 46.6367 6.81848 57.6923C1.91284 71.3209 1.08913 86.0835 4.44818 100.173C7.80724 114.262 15.2033 127.067 25.7309 137.019C14.5885 127.136 6.66191 114.145 2.97229 99.7186C-0.71733 85.2924 -0.000928462 70.0925 5.0292 56.0769C9.03869 45.0192 15.5629 35.0435 24.0877 26.9362C32.6124 18.8288 42.9045 12.8114 54.1529 9.35825C65.4012 5.90511 77.2982 5.11064 88.9062 7.03746C100.514 8.96427 111.516 13.5597 121.044 20.4615C123.745 22.4416 126.315 24.5935 128.739 26.9038C126.846 25.2028 124.868 23.5982 122.814 22.0961Z" fill="url(#paint2_linear_19_1703)"/>
<path d="M125.199 98.8654C128.973 88.3017 129.194 76.7957 125.829 66.0949C122.464 55.3942 115.697 46.0835 106.556 39.5769C104.13 37.835 101.554 36.3099 98.8604 35.0192C97.2141 34.2268 95.5248 33.527 93.8004 32.9231C86.7797 30.3991 79.2954 29.4252 71.8622 30.0684C64.4291 30.7115 57.2235 32.9564 50.7411 36.6487C44.2588 40.3409 38.6535 45.3929 34.3109 51.4571C29.9683 57.5213 26.9915 64.4537 25.5851 71.7776C24.1787 79.1015 24.3762 86.643 26.164 93.8833C27.9518 101.124 31.2874 107.891 35.9415 113.72C40.5956 119.548 46.4576 124.3 53.1243 127.649C59.791 130.997 67.1042 132.862 74.5609 133.115C85.5404 133.492 96.3567 130.38 105.455 124.226C114.554 118.072 121.466 109.193 125.199 98.8654ZM118.446 96.1538C114.434 107.262 106.185 116.33 95.5019 121.375C84.8191 126.421 72.5723 127.032 61.4395 123.077C58.98 122.209 56.6039 121.122 54.3401 119.827C44.6434 114.342 37.3625 105.416 33.941 94.8176C30.5195 84.2192 31.2072 72.7227 35.8677 62.6073C40.5282 52.4919 48.8213 44.4963 59.1027 40.2056C69.3842 35.9149 80.9033 35.6425 91.3762 39.4423L91.8764 39.6154C95.54 40.9616 99.013 42.7781 102.208 45.0192C110.146 50.5866 116.035 58.6062 118.969 67.8448C121.903 77.0835 121.719 87.0296 118.446 96.1538Z" fill="url(#paint3_linear_19_1703)"/>
<path style="mix-blend-mode:multiply" opacity="0.06" d="M93.7811 32.8077C80.849 28.2202 66.6263 28.9337 54.2188 34.7924C41.8112 40.6511 32.2269 51.1789 27.5587 64.0769C25.2844 70.4655 24.2938 77.2399 24.6437 84.0119C24.9935 90.7839 26.6769 97.4203 29.5973 103.541C32.5178 109.661 36.6179 115.146 41.6627 119.679C46.7075 124.213 52.5978 127.707 58.9961 129.962C71.8129 134.462 85.8879 133.73 98.1688 127.926C110.45 122.122 119.947 111.712 124.6 98.9556C129.253 86.1987 128.688 72.1224 123.027 59.7793C117.366 47.4361 107.065 37.8211 94.3583 33.0192L93.7811 32.8077Z" fill="url(#paint4_linear_19_1703)"/>
<g style="mix-blend-mode:multiply" opacity="0.11">
<path d="M93.5503 33.4615C80.7917 28.9133 66.7509 29.5963 54.4944 35.3614C42.238 41.1265 32.7619 51.5052 28.1359 64.2308C24.0832 75.5028 24.1596 87.8459 28.3514 99.067C32.5432 110.288 40.5789 119.661 51.0309 125.519C53.6212 126.996 56.3384 128.238 59.15 129.231C71.6971 133.328 85.3455 132.395 97.2181 126.629C109.091 120.864 118.26 110.716 122.793 98.3249C127.326 85.9337 126.869 72.2674 121.518 60.2066C116.167 48.1458 106.34 38.6329 94.1082 33.6731L93.5503 33.4615Z" fill="#FBFBFB"/>
</g>
<g style="mix-blend-mode:multiply" opacity="0.41">
<path d="M93.3194 34.1346C80.7391 29.6751 66.905 30.3689 54.8345 36.0645C42.7639 41.7602 33.4364 51.9957 28.8862 64.5385C24.8968 75.6572 24.9744 87.8286 29.1052 98.8956C33.2361 109.963 41.1535 119.21 51.4542 125C54.0109 126.461 56.6965 127.684 59.4771 128.654C71.8273 132.595 85.2241 131.609 96.8637 125.903C108.503 120.196 117.484 110.211 121.926 98.0363C126.368 85.8621 125.927 72.4424 120.695 60.5857C115.464 48.729 105.847 39.3542 93.8581 34.4231L93.3194 34.1346Z" fill="#F5F5F5"/>
</g>
<g style="mix-blend-mode:multiply" opacity="0.41">
<path d="M93.0693 34.7885C80.6677 30.3986 67.0326 31.0891 55.1383 36.7092C43.2441 42.3294 34.0562 52.4231 29.5788 64.7885C25.6259 75.7488 25.6917 87.7555 29.7643 98.672C33.8369 109.588 41.6523 118.707 51.8197 124.404C57.7621 127.778 64.339 129.887 71.1365 130.597C77.934 131.307 84.8048 130.602 91.3167 128.528C97.8286 126.455 103.841 123.056 108.974 118.546C114.108 114.037 118.252 108.514 121.146 102.325C124.04 96.1363 125.621 89.4158 125.79 82.5866C125.959 75.7573 124.711 68.9671 122.126 62.6431C119.541 56.3192 115.675 50.5986 110.77 45.8412C105.866 41.0838 100.029 37.3926 93.6272 35L93.0693 34.7885Z" fill="#FBFBFB"/>
</g>
<g style="mix-blend-mode:multiply" opacity="0.41">
<path d="M92.8384 35.4615C80.6104 31.1263 67.1633 31.801 55.431 37.3384C43.6988 42.8758 34.6338 52.8264 30.2138 65.0192C25.8943 77.2193 26.5992 90.6346 32.1734 102.315C37.7476 113.996 47.7348 122.986 59.9388 127.308C72.0279 131.445 85.2582 130.679 96.7886 125.174C108.319 119.669 117.23 109.864 121.608 97.8649C125.985 85.8655 125.481 72.6287 120.203 60.9969C114.924 49.3652 105.293 40.2662 93.3771 35.6539L92.8384 35.4615Z" fill="#FBFBFB"/>
</g>
<g style="mix-blend-mode:multiply" opacity="0.41">
<path d="M92.5883 36.1154C80.5388 31.8482 67.29 32.5164 55.7315 37.9742C44.1729 43.4321 35.2422 53.2368 30.8871 65.25C27.081 75.8955 27.1704 87.5445 31.1397 98.1303C35.109 108.716 42.7015 117.554 52.5701 123.077C55.0289 124.47 57.6038 125.647 60.2659 126.596C72.2571 130.962 85.4923 130.388 97.0599 125C108.628 119.612 117.58 109.851 121.948 97.8654C126.316 85.8796 125.741 72.6505 120.351 61.0881C114.96 49.5258 105.195 40.5774 93.204 36.2115L92.5883 36.1154Z" fill="#FBFBFB"/>
</g>
<g style="mix-blend-mode:multiply" opacity="0.59">
<path d="M92.3574 36.7884C80.4845 32.5729 67.4248 33.2265 56.0326 38.6065C44.6404 43.9865 35.8421 53.6554 31.5605 65.5C27.7877 75.9864 27.8572 87.4704 31.7568 97.9104C35.6565 108.35 43.1335 117.07 52.8587 122.519C55.2684 123.901 57.7992 125.059 60.4198 125.981C72.2273 130.296 85.2661 129.745 96.6677 124.451C108.069 119.157 116.9 109.552 121.217 97.75C125.534 85.9479 124.983 72.915 119.686 61.5186C114.39 50.1221 104.781 41.2956 92.9731 36.9808L92.3574 36.7884Z" fill="#FBFBFB"/>
</g>
<g style="mix-blend-mode:multiply" opacity="0.59">
<path d="M92.1265 37.4423C80.4266 33.2988 67.5622 33.9474 56.3388 39.2467C45.1154 44.546 36.4436 54.0661 32.2147 65.7308C28.1113 77.4069 28.799 90.2318 34.1274 101.403C39.4558 112.573 48.9916 121.182 60.6507 125.346C72.2524 129.45 85.006 128.81 96.1383 123.566C107.271 118.321 115.881 108.895 120.098 97.3385C124.314 85.7817 123.796 73.0284 118.655 61.8516C113.514 50.6749 104.167 41.9786 92.646 37.6538L92.1265 37.4423Z" fill="#FBFBFB"/>
</g>
<g style="mix-blend-mode:multiply" opacity="0.3">
<path d="M91.8764 38.1154C80.3577 34.0337 67.6916 34.6706 56.6409 39.8872C45.5902 45.1038 37.0517 54.4768 32.888 65.9615C30.8664 71.6535 29.9874 77.688 30.3014 83.7199C30.6155 89.7517 32.1164 95.6624 34.7182 101.114C37.3201 106.565 40.9719 111.45 45.4646 115.49C49.9573 119.529 55.2027 122.643 60.9008 124.654C72.2914 128.557 84.7593 127.839 95.6257 122.653C106.492 117.467 114.89 108.228 119.014 96.9199C123.139 85.612 122.661 73.1382 117.684 62.1786C112.707 51.2189 103.627 42.6481 92.3959 38.3077C92.2285 38.2289 92.0548 38.1646 91.8764 38.1154Z" fill="#FBFBFB"/>
</g>
<g style="mix-blend-mode:multiply" opacity="0.3">
<path d="M119.216 96.5577C122.98 86.0146 122.69 74.4496 118.402 64.1082C114.114 53.7668 106.135 45.3871 96.0129 40.5962C94.7624 40 93.4733 39.4423 92.165 38.9615L91.6648 38.7885C80.9939 34.9143 69.2561 35.1892 58.7784 39.5586C48.3007 43.928 39.8479 52.0729 35.0957 62.3788C30.3435 72.6847 29.6388 84.3991 33.1213 95.2C36.6038 106.001 44.0192 115.099 53.8976 120.692C56.207 122 58.6278 123.1 61.1317 123.981C67.3551 126.195 73.9862 127.029 80.5645 126.425C87.1428 125.82 93.5106 123.792 99.2259 120.481C108.525 115.139 115.614 106.656 119.216 96.5577Z" fill="#FBFBFB"/>
</g>
<path opacity="0.48" d="M118.465 96.1538C122.363 85.1309 121.76 73.017 116.787 62.4352C111.814 51.8533 102.872 43.655 91.8957 39.6154L91.3954 39.4423C85.046 37.1829 78.2676 36.3881 71.5674 37.1175C64.8672 37.8468 58.4188 40.0813 52.7048 43.6538C46.2056 47.6768 40.8599 53.314 37.1886 60.0161C33.5173 66.7183 31.6457 74.2568 31.7562 81.897C31.8666 89.5372 33.9553 97.0185 37.8188 103.612C41.6822 110.205 47.1887 115.686 53.8014 119.519L54.3401 119.846C56.6062 121.131 58.982 122.212 61.4395 123.077C72.5747 127.038 84.8264 126.43 95.5137 121.384C106.201 116.338 114.453 107.266 118.465 96.1538Z" fill="url(#paint5_linear_19_1703)"/>
<g style="mix-blend-mode:screen">
<path style="mix-blend-mode:screen" opacity="0.32" d="M52.9356 127.385L51.5696 126.923C51.0502 126.635 50.5115 126.346 50.0112 126.038C51.358 126.692 52.7625 127.288 54.1862 127.827L52.9356 127.385Z" fill="url(#paint6_linear_19_1703)"/>
</g>
<g style="mix-blend-mode:multiply" opacity="0.28">
<path d="M106.556 39.5769C104.593 38.1479 102.529 36.8625 100.38 35.7308C99.8608 35.4615 99.3413 35.1923 98.8026 34.9423C97.1564 34.1499 95.4671 33.4501 93.7426 32.8461C86.8763 30.4187 79.5739 29.4699 72.3148 30.0621C65.0558 30.6543 58.004 32.7741 51.6223 36.2824C45.2406 39.7907 39.6733 44.6082 35.2856 50.4188C30.8979 56.2293 27.789 62.9016 26.1629 69.9978C24.5369 77.0939 24.4305 84.4536 25.8506 91.5937C27.2708 98.7339 30.1854 105.493 34.4032 111.428C38.6211 117.363 44.0468 122.339 50.3244 126.031C56.6019 129.722 63.5894 132.044 70.8284 132.846C72.0405 132.981 73.2718 133.058 74.4839 133.096C74.0422 131.894 73.8634 130.611 73.9596 129.334C74.0559 128.057 74.4249 126.815 75.0418 125.692C73.6951 125.692 72.3483 125.558 71.0015 125.385C67.7213 124.994 64.4949 124.239 61.3818 123.135C58.9223 122.267 56.5461 121.179 54.2824 119.885C44.5857 114.4 37.3048 105.474 33.8833 94.8753C30.4618 84.2769 31.1494 72.7804 35.81 62.665C40.4705 52.5496 48.7636 44.5539 59.045 40.2633C69.3264 35.9726 80.8455 35.7002 91.3185 39.5L91.8187 39.6731C93.4053 40.2634 94.9595 40.9374 96.4747 41.6923C98.4468 42.6802 100.344 43.8115 102.15 45.0769C102.403 43.8797 102.934 42.7585 103.699 41.8033C104.464 40.8482 105.443 40.0856 106.556 39.5769Z" fill="#FBFBFB"/>
</g>
<path style="mix-blend-mode:soft-light" d="M70.8284 132.865C70.4606 130.904 70.4281 128.895 70.7322 126.923C70.7322 126.404 70.9054 125.923 71.0016 125.462C68.895 125.213 66.8109 124.801 64.7679 124.231C63.6521 123.942 62.5362 123.596 61.4395 123.212C58.98 122.344 56.6039 121.256 54.3401 119.962C44.7765 114.553 37.5574 105.795 34.0775 95.3769C30.5975 84.9592 31.1036 73.6221 35.4981 63.5556C39.8925 53.4892 47.8633 45.4077 57.8708 40.8725C67.8783 36.3373 79.2123 35.6702 89.6831 39C90.2603 39.1923 90.8183 39.3654 91.3762 39.5769L91.8764 39.75C93.4631 40.3403 95.0172 41.0143 96.5324 41.7692C96.6077 40.5364 97.0018 39.3442 97.6763 38.3094C98.3508 37.2745 99.2825 36.4324 100.38 35.8654C99.8608 35.5962 99.3414 35.3269 98.8027 35.0769C97.1564 34.2845 95.4671 33.5847 93.7427 32.9808L92.7037 32.6346C79.9144 28.7236 66.1059 29.9231 54.1833 35.9807C42.2606 42.0383 33.1531 52.4818 28.7767 65.1143C24.4003 77.7468 25.0961 91.5835 30.7178 103.714C36.3395 115.844 46.4488 125.322 58.9191 130.154C60.516 130.712 62.0937 131.192 63.6905 131.596C66.0366 132.188 68.422 132.612 70.8284 132.865Z" fill="url(#paint7_linear_19_1703)"/>
<g style="mix-blend-mode:multiply" opacity="0.1">
<path d="M64.7679 124.173C63.6521 123.885 62.5362 123.538 61.4395 123.154L60.7661 122.904C58.5444 122.084 56.395 121.081 54.3401 119.904C45.0428 114.654 37.9495 106.232 34.3599 96.1793C30.7704 86.1271 30.925 75.1186 34.7955 65.1711C38.666 55.2236 45.9931 47.0033 55.4342 42.0166C64.8753 37.0299 75.798 35.6108 86.2008 38.0192C87.3744 38.2692 88.5288 38.5962 89.6831 38.9423C88.9713 37.4423 87.9901 34.0385 92.7037 32.5769C90.8502 31.9586 88.9613 31.4512 87.0473 31.0577C74.2293 28.3181 60.8487 30.5533 49.6185 37.3101C38.3884 44.0669 30.1491 54.8396 26.5714 67.4439C22.9937 80.0482 24.3453 93.5407 30.3522 105.186C36.3591 116.831 46.5716 125.757 58.9191 130.154L59.5156 130.365C60.9008 130.827 62.3053 131.25 63.6905 131.596C63.1607 130.381 62.9808 129.043 63.1712 127.731C63.3616 126.42 63.9146 125.187 64.7679 124.173Z" fill="#FBFBFB"/>
</g>
<g style="mix-blend-mode:multiply" opacity="0.12">
<path d="M60.7662 122.904C59.631 122.481 58.5344 122.019 57.457 121.519C56.3795 121.019 55.3406 120.481 54.3402 119.904C45.4762 114.854 38.6223 106.907 34.9314 97.3995C31.2405 87.8921 30.9377 77.4043 34.0739 67.7C37.21 57.9956 43.5938 49.6667 52.1517 44.1142C60.7095 38.5616 70.9193 36.1241 81.0639 37.2115C82.7918 37.3888 84.5073 37.6714 86.2008 38.0577C85.7817 37.5523 85.4701 36.9669 85.2851 36.3371C85.1001 35.7073 85.0456 35.0464 85.1248 34.3948C85.204 33.7432 85.4154 33.1146 85.746 32.5474C86.0765 31.9802 86.5193 31.4864 87.0473 31.0961C85.4505 30.75 83.8728 30.5 82.2759 30.3077C70.0385 28.8599 57.6866 31.8357 47.4528 38.6973C37.219 45.5588 29.7787 55.8534 26.4766 67.7202C23.1745 79.587 24.2285 92.2431 29.4482 103.401C34.6678 114.559 43.7086 123.482 54.9366 128.558C56.2256 129.135 57.5724 129.673 58.9192 130.154L59.5156 130.365C59.3095 128.709 59.4007 127.029 59.7849 125.404C59.9958 124.529 60.3259 123.688 60.7662 122.904Z" fill="#FBFBFB"/>
</g>
<g style="mix-blend-mode:multiply" opacity="0.12">
<path d="M57.4569 121.519C56.3795 121.019 55.3406 120.481 54.3401 119.904L53.5128 119.442C45.2107 114.512 38.7438 107.01 35.0929 98.0738C31.4419 89.1378 30.8063 79.2554 33.2823 69.9256C35.7583 60.5958 41.2109 52.3277 48.8131 46.3754C56.4152 40.423 65.752 37.1112 75.4074 36.9423C77.2958 36.904 79.1848 36.981 81.0638 37.1731C80.5164 36.0406 80.3389 34.7647 80.5564 33.5259C80.7739 32.287 81.3754 31.1478 82.2759 30.2692C80.111 30.0202 77.9328 29.9046 75.7537 29.9231C64.4178 29.9933 53.4204 33.7929 44.4608 40.7348C35.5012 47.6766 29.0779 57.3745 26.1834 68.3299C23.289 79.2853 24.0844 90.8886 28.4468 101.347C32.8092 111.805 40.4959 120.537 50.3191 126.192C51.8138 127.065 53.3553 127.854 54.9365 128.558C54.6552 127.266 54.7422 125.922 55.1878 124.678C55.6334 123.433 56.4196 122.339 57.4569 121.519Z" fill="#FBFBFB"/>
</g>
<g style="mix-blend-mode:multiply" opacity="0.12">
<path d="M34.3695 66.4231C37.1313 58.7308 41.9582 51.9468 48.3213 46.8146C54.6844 41.6824 62.3381 38.3999 70.4436 37.3269C72.0904 37.1128 73.7473 36.9844 75.4074 36.9423C74.1376 35.6923 71.7327 32.6538 75.7537 29.9231C73.682 29.9535 71.6136 30.1012 69.5586 30.3654C59.1418 31.6929 49.3781 36.1657 41.5716 43.1862C33.7652 50.2068 28.2875 59.441 25.8702 69.6555C23.4529 79.87 24.211 90.5785 28.0434 100.351C31.8758 110.123 38.5999 118.494 47.3177 124.346C48.2989 124.981 49.2417 125.596 50.3191 126.269C50.2751 124.971 50.542 123.681 51.0975 122.507C51.6531 121.333 52.4811 120.309 53.5128 119.519C52.3777 118.846 51.3003 118.135 50.2421 117.365C42.409 111.759 36.6205 103.75 33.7557 94.5559C30.8909 85.3615 31.1064 75.4838 34.3695 66.4231Z" fill="#FBFBFB"/>
</g>
<g style="mix-blend-mode:multiply" opacity="0.12">
<path d="M34.3695 66.4231C36.8882 59.4126 41.1265 53.1459 46.6962 48.1969C52.2659 43.248 58.9889 39.775 66.2494 38.0962C67.6346 37.7692 69.0391 37.5192 70.4436 37.3269C69.2315 36.4038 66.3263 33.6923 69.5586 30.3654C67.6605 30.6167 65.7784 30.9763 63.9214 31.4423C54.5705 33.6987 46.0379 38.5256 39.2889 45.3771C32.5399 52.2286 27.8438 60.8312 25.7318 70.2117C23.6198 79.5923 24.1763 89.3764 27.3382 98.4572C30.5001 107.538 36.1413 115.553 43.6237 121.596C44.7973 122.577 46.0479 123.519 47.3177 124.346C47.4403 121.731 48.4749 119.241 50.2421 117.308C49.3186 116.654 48.4143 115.942 47.5486 115.212C40.6297 109.398 35.6579 101.606 33.3017 92.8839C30.9456 84.1616 31.3182 74.9273 34.3695 66.4231Z" fill="#FBFBFB"/>
</g>
<path d="M43.9123 123.846L43.3736 123.635V123.827L43.9123 123.846Z" fill="#FEFEFE"/>
<g style="mix-blend-mode:multiply" opacity="0.12">
<path d="M34.3695 66.4231C36.5578 60.3109 40.0608 54.7529 44.6316 50.141C49.2024 45.529 54.7297 41.9755 60.8238 39.7308C62.5983 39.0788 64.41 38.533 66.2494 38.0962C65.5919 37.8967 64.9907 37.5449 64.4948 37.0695C63.9989 36.594 63.6222 36.0083 63.3953 35.36C63.1685 34.7117 63.0979 34.019 63.1893 33.3382C63.2807 32.6575 63.5316 32.0079 63.9214 31.4423C62.2934 31.8289 60.6877 32.304 59.1115 32.8654C50.8389 35.7436 43.4366 40.6817 37.6035 47.2135C31.7704 53.7453 27.6989 61.6552 25.7735 70.1965C23.848 78.7379 24.1321 87.6288 26.5989 96.0299C29.0657 104.431 33.6338 112.065 39.872 118.212C41.0945 119.406 42.3789 120.536 43.7199 121.596C44.2205 119.08 45.5808 116.816 47.5678 115.192C40.6528 109.38 35.6834 101.592 33.3274 92.8733C30.9715 84.155 31.3418 74.9248 34.3887 66.4231H34.3695Z" fill="#FBFBFB"/>
</g>
<g style="mix-blend-mode:multiply" opacity="0.28">
<path d="M34.3695 66.4231C38.1225 55.8931 45.7251 47.174 55.6484 42.0192C57.3249 41.1509 59.0533 40.3866 60.8238 39.7308C60.8238 39.7308 54.2054 36.8654 59.1115 32.8654C56.2869 33.8564 53.5515 35.0852 50.9347 36.5385C44.4582 40.1449 38.8369 45.1064 34.455 51.084C30.0732 57.0615 27.0341 63.9142 25.5454 71.1736C24.0566 78.4331 24.1534 85.9282 25.8291 93.1469C27.5047 100.366 30.7198 107.137 35.2545 113C36.6796 114.835 38.222 116.576 39.872 118.212C39.8683 116.857 40.2817 115.535 41.0562 114.423C41.8307 113.312 42.9286 112.466 44.2009 112C43.0437 110.782 41.9581 109.497 40.9494 108.154C36.4477 102.303 33.4865 95.4176 32.337 88.1269C31.1874 80.8363 31.8863 73.3738 34.3695 66.4231Z" fill="#FEFEFE"/>
</g>
<g style="mix-blend-mode:multiply" opacity="0.28">
<path d="M34.4272 66.2885C38.1802 55.7585 45.7828 47.0393 55.7061 41.8846C54.1862 40.9615 51.2041 38.9038 50.9732 36.4038C44.4941 40.0049 38.8695 44.962 34.4839 50.9363C30.0984 56.9106 27.0553 63.761 25.5628 71.0193C24.0703 78.2775 24.1636 85.7723 25.8363 92.9912C27.509 100.21 30.7216 106.983 35.2545 112.846C35.5858 111.54 36.3231 110.373 37.3603 109.512C38.3975 108.652 39.6811 108.143 41.0264 108.058C36.5246 102.2 33.5621 95.3085 32.4094 88.0124C31.2567 80.7163 31.9504 73.2478 34.4272 66.2885Z" fill="#FEFEFE"/>
</g>
<g style="mix-blend-mode:multiply">
<path d="M38.9485 68.6923C42.3924 55.0192 50.9732 42.5962 58.8229 33.5C51.1161 36.0068 44.1475 40.3766 38.5358 46.2216C32.924 52.0665 28.8426 59.2057 26.6538 67.0057C24.465 74.8057 24.2365 83.0251 25.9886 90.9345C27.7407 98.844 31.4191 106.199 36.6975 112.346C36.5628 111.346 36.4666 110.288 36.3512 109.192C34.941 95.6422 35.8191 81.9516 38.9485 68.6923Z" fill="#FEFEFE"/>
</g>
<path style="mix-blend-mode:screen" opacity="0.49" d="M36.7359 138.462C38.6599 139.712 40.4877 136.692 38.6599 135.192C29.6943 127.596 16.4382 109.981 14.091 92.3077C10.4355 65.5577 27.3663 38.4615 45.0667 27.9038C62.767 17.3461 27.7511 22.25 13.8409 46.5769C-0.0692692 70.9038 2.16252 93.5577 11.2436 110.212C19.5358 125.423 26.7314 132.115 36.7359 138.462Z" fill="url(#paint8_linear_19_1703)"/>
<g style="mix-blend-mode:multiply">
<path d="M38.6984 67.0385C30.4831 89.9615 43.6237 115.577 68.0771 124.269C65.554 123.828 63.0705 123.185 60.6507 122.346C36.1588 113.596 22.9797 87.9615 31.195 65.0192C37.7941 46.5961 56.2063 35.5 75.8114 36.3269C76.1577 44.6154 75.5613 30.3077 75.9076 38.6154C67.6588 39.3756 59.7918 42.4458 53.2099 47.4735C46.6281 52.5011 41.5984 59.2824 38.6984 67.0385Z" fill="#FEFEFE"/>
</g>
<path style="mix-blend-mode:screen" opacity="0.47" d="M59.4386 129.538C53.9609 127.629 48.8523 124.793 44.3356 121.154C46.5871 122.364 48.9284 123.399 51.3388 124.25C77.947 133.673 109.615 121.346 119.1 94.8846C126.546 74.0385 117.176 50.1154 100.765 36.9038C111.972 43.0443 120.457 53.1731 124.537 65.2786C128.617 77.3841 127.993 90.5807 122.788 102.247C117.584 113.914 108.179 123.197 96.4431 128.253C84.7069 133.309 71.4976 133.768 59.4386 129.538Z" fill="url(#paint9_linear_19_1703)"/>
<path style="mix-blend-mode:screen" d="M97.3404 121.558C103.968 116.858 109.745 111.063 114.425 104.423C121.832 93.7115 120.197 81.7885 122.852 80.8654C125.507 79.9423 127.47 89.7692 123.16 99.6731C118.85 109.577 115.695 113.231 109.365 118.154C103.035 123.077 96.6478 122.731 97.3404 121.558Z" fill="url(#paint10_linear_19_1703)"/>
<g style="mix-blend-mode:multiply" opacity="0.49">
<path d="M118.465 96.1538C122.394 85.1323 121.806 73.0054 116.83 62.4152C111.853 51.8251 102.891 43.6299 91.8957 39.6154L91.3954 39.4423C85.7229 37.4201 79.6996 36.5667 73.6883 36.9335C67.677 37.3004 61.8022 38.8799 56.418 41.5769C55.1305 42.2075 53.8781 42.9072 52.6663 43.6731C60.2612 48.4586 66.9289 54.5761 72.3483 61.7308C85.6236 79.4423 88.9135 110.596 89.6639 123.654C90.6258 123.346 91.5878 123.019 92.5113 122.654C98.4946 120.371 103.913 116.82 108.393 112.246C112.873 107.671 116.309 102.182 118.465 96.1538Z" fill="#FEFEFE"/>
</g>
<g style="mix-blend-mode:multiply" opacity="0.49">
<path d="M118.465 96.1538C122.394 85.1323 121.806 73.0054 116.83 62.4152C111.853 51.8251 102.891 43.6299 91.8957 39.6154L91.3954 39.4423C80.9524 35.7615 69.5127 36.0974 59.3039 40.3846C58.3419 40.7692 57.3799 41.2115 56.4565 41.6731C64.5948 47.2884 75.9461 56.6346 82.1027 68.3846C93.3963 89.8654 92.9731 116.25 92.5883 122.654C93.8773 122.154 95.1471 121.596 96.4362 120.981C106.718 115.868 114.615 106.968 118.465 96.1538Z" fill="#FEFEFE"/>
</g>
<g style="mix-blend-mode:multiply" opacity="0.49">
<path d="M118.465 96.1538C122.394 85.1323 121.806 73.0054 116.83 62.4152C111.853 51.8251 102.891 43.63 91.8957 39.6154L91.3955 39.4423C82.1684 36.1533 72.1148 35.9911 62.7863 38.9808C61.6127 39.3654 60.4391 39.7885 59.3039 40.2692C67.4807 45.8269 79.5054 55.4231 85.8545 67.6346C96.6286 88.2115 96.6671 113.173 96.3785 120.981C97.6611 120.314 98.9438 119.583 100.226 118.788C108.683 113.513 115.11 105.537 118.465 96.1538Z" fill="#FEFEFE"/>
</g>
<g style="mix-blend-mode:multiply" opacity="0.49">
<path d="M118.465 96.1538C122.394 85.1323 121.806 73.0054 116.83 62.4152C111.853 51.8251 102.891 43.63 91.8957 39.6154L91.3955 39.4423C83.5134 36.6333 75.0005 36.0936 66.8266 37.8846C65.467 38.1923 64.1202 38.5577 62.7863 38.9808C70.9823 44.4808 83.2379 54.1923 89.7216 66.5962C100.015 86.2308 100.515 109.865 100.303 118.769C101.759 117.864 103.166 116.882 104.517 115.827C110.904 110.691 115.734 103.879 118.465 96.1538Z" fill="#FEFEFE"/>
</g>
<g style="mix-blend-mode:multiply" opacity="0.49">
<path d="M118.465 96.1538C122.394 85.1323 121.806 73.0054 116.83 62.4152C111.853 51.8251 102.891 43.63 91.8957 39.6154L91.3954 39.4423C83.5109 36.6455 75.0015 36.106 66.8266 37.8846C75.0226 43.3846 87.3551 53.1154 93.8581 65.5577C103.478 83.9423 104.517 105.769 104.517 115.827C105.71 114.865 106.845 113.904 107.941 112.769C112.649 108.088 116.246 102.41 118.465 96.1538Z" fill="#FEFEFE"/>
</g>
<g style="mix-blend-mode:multiply" opacity="0.49">
<path d="M118.465 96.1539C122.394 85.1323 121.806 73.0054 116.83 62.4152C111.853 51.8251 102.891 43.63 91.8957 39.6154L91.3955 39.4423C87.2162 37.9581 82.8395 37.1026 78.4088 36.9039C76.8131 36.8172 75.2138 36.8172 73.6181 36.9039C81.5256 42.6731 91.6071 51.4039 97.302 62.25C106.922 80.7308 107.999 102.769 107.884 112.712C108.865 111.731 109.808 110.788 110.712 109.635C114.069 105.631 116.693 101.068 118.465 96.1539Z" fill="#FEFEFE"/>
</g>
<g style="mix-blend-mode:multiply" opacity="0.49">
<path d="M118.465 96.1538C122.394 85.1323 121.806 73.0054 116.83 62.4152C111.853 51.8251 102.891 43.6299 91.8957 39.6154L91.3954 39.4423C90.2411 39.0192 89.0675 38.6538 87.8938 38.3461C84.7927 37.5285 81.6129 37.045 78.4088 36.9038C85.9699 42.6731 94.897 50.8269 100.111 60.7885C109.307 78.3654 110.673 99.1538 110.712 109.615C112.291 107.728 113.713 105.715 114.964 103.596C116.35 101.224 117.522 98.7338 118.465 96.1538Z" fill="#FEFEFE"/>
</g>
<g style="mix-blend-mode:multiply" opacity="0.49">
<path d="M118.465 96.1538C122.214 85.6936 121.886 74.2063 117.548 63.9764C113.21 53.7465 105.178 45.5234 95.051 40.9423C94.0313 40.4615 92.9731 40.0385 91.8957 39.6346L91.3955 39.4615C90.2411 39.0385 89.0675 38.6731 87.8939 38.3654C94.5772 43.8578 100.176 50.5494 104.401 58.0962C112.732 73.9808 114.656 92.4808 114.964 103.673C116.146 101.619 117.156 99.4706 117.984 97.25L118.465 96.1538Z" fill="#FEFEFE"/>
</g>
<g style="mix-blend-mode:multiply" opacity="0.49">
<path d="M118.465 96.1539C122.214 85.6936 121.886 74.2063 117.548 63.9764C113.21 53.7465 105.178 45.5234 95.051 40.9423C100.145 45.6518 104.446 51.1519 107.788 57.2308C114.848 70.6923 117.292 86.0769 118.061 97.25L118.465 96.1539Z" fill="#FEFEFE"/>
</g>
<g style="mix-blend-mode:multiply" opacity="0.49">
<path d="M146.94 106.058C153.424 87.8955 152.669 67.9362 144.832 50.3149C136.995 32.6937 122.677 18.7612 104.844 11.4038C103.613 10.9038 102.362 10.4231 100.996 9.96153L99.072 9.28845C98.4563 11.7692 97.9561 14.4423 97.5136 17.3269C88.067 81.5 59.3424 132.692 47.9911 150.827L50.3383 151.692C51.4734 152.096 52.6278 152.481 53.7822 152.808C72.3456 158.431 92.3606 156.716 109.696 148.017C127.031 139.317 140.363 124.298 146.94 106.058Z" fill="#FEFEFE"/>
</g>
<g style="mix-blend-mode:multiply" opacity="0.49">
<path d="M146.94 106.058C153.136 88.7541 152.759 69.7789 145.882 52.7343C139.005 35.6898 126.106 21.7624 109.635 13.5961C108.083 12.8013 106.486 12.0705 104.844 11.4038C104.247 13.8654 103.747 16.5192 103.324 19.3654C93.8389 83.5 65.1527 134.615 53.7822 152.808C55.5714 153.346 57.38 153.827 59.1885 154.231C77.1756 158.263 96.0166 155.593 112.174 146.723C128.331 137.853 140.694 123.393 146.94 106.058Z" fill="#FEFEFE"/>
</g>
<g style="mix-blend-mode:multiply" opacity="0.49">
<path d="M146.94 106.058C152.82 89.6275 152.784 71.6623 146.838 55.2558C140.893 38.8493 129.41 25.0283 114.367 16.1731C112.828 15.25 111.251 14.3846 109.635 13.5962C109 16.1539 108.461 18.9423 107.999 21.9615C98.7449 84.7692 71.0208 135.038 59.1885 154.231C61.0355 154.654 62.8825 155 64.7295 155.269C82.009 157.807 99.6348 154.293 114.618 145.324C129.602 136.354 141.021 122.482 146.94 106.058Z" fill="#FEFEFE"/>
</g>
<g style="mix-blend-mode:multiply" opacity="0.49">
<path d="M146.94 106.058C152.405 90.7825 152.768 74.1477 147.974 58.6489C143.18 43.1501 133.488 29.6228 120.351 20.0962C118.423 18.713 116.426 17.4293 114.367 16.25C113.771 18.7116 113.271 21.3654 112.848 24.2116C103.747 85.75 76.9081 135.346 64.7487 155.346C67.1344 155.692 69.5201 155.923 71.8866 156.038C88.1082 156.87 104.167 152.459 117.684 143.457C131.202 134.455 141.46 121.341 146.94 106.058Z" fill="#FEFEFE"/>
</g>
<g style="mix-blend-mode:multiply" opacity="0.49">
<path d="M146.94 106.058C152.021 91.8734 152.711 76.4883 148.918 61.9068C145.126 47.3252 137.029 34.2232 125.68 24.3077C123.987 22.8269 122.236 21.4231 120.409 20.0962C120.005 22.0192 119.658 23.9423 119.35 25.9615C110.289 86.4231 84.3345 135.288 71.8096 155.962C74.3731 156.098 76.9419 156.098 79.5054 155.962C94.4215 155.236 108.788 150.108 120.79 141.226C132.793 132.344 141.892 120.106 146.94 106.058Z" fill="#FEFEFE"/>
</g>
<g style="mix-blend-mode:multiply" opacity="0.49">
<path d="M146.94 106.058C152.021 91.8734 152.711 76.4883 148.918 61.9068C145.126 47.3253 137.029 34.2233 125.68 24.3077C125.295 26.0577 124.968 27.9231 124.68 29.8846C116.214 86.8077 92.646 133.442 79.5054 155.962C94.4216 155.236 108.788 150.108 120.79 141.226C132.793 132.344 141.892 120.106 146.94 106.058Z" fill="#FEFEFE"/>
</g>
<path style="mix-blend-mode:screen" opacity="0.21" d="M117.984 96C120.973 87.6258 121.34 78.5407 119.038 69.9528C116.735 61.3649 111.872 53.6811 105.094 47.9231C100.994 44.4421 96.2931 41.7376 91.2223 39.9423L90.0679 39.5577C89.0482 39.2115 88.0093 38.9231 86.9704 38.6731C76.4484 36.0458 65.3261 37.4023 55.7449 42.4814C46.1637 47.5605 38.8012 56.003 35.075 66.1834C31.3488 76.3638 31.5223 87.5622 35.5622 97.6223C39.6021 107.682 47.2227 115.893 56.9567 120.673C58.0341 121.192 59.1308 121.692 60.2467 122.135L61.6127 122.635C72.6236 126.53 84.7289 125.916 95.289 120.927C105.849 115.938 114.007 106.977 117.984 96Z" fill="url(#paint11_linear_19_1703)"/>
<path style="mix-blend-mode:multiply" opacity="0.06" d="M92.646 39.9423C81.9951 37.3319 70.7552 38.7391 61.0774 43.8946C51.3996 49.0501 43.9638 57.5917 40.1929 67.8847C36.4221 78.1778 36.5811 89.4993 40.6397 99.6824C44.6982 109.866 52.3711 118.195 62.1898 123.077L62.7093 123.327L61.5549 122.942L60.2659 122.481C59.1308 122.038 58.0149 121.538 56.9375 121.019C47.087 116.164 39.3777 107.843 35.2893 97.6535C31.2008 87.4644 31.0212 76.1249 34.785 65.8115C38.5487 55.4981 45.9906 46.9374 55.6823 41.7726C65.3741 36.6077 76.6327 35.2026 87.2974 37.8269C88.3556 38.0769 89.3945 38.3846 90.4527 38.7308L91.6071 39.1154C93.0308 39.6346 94.416 40.1923 95.7628 40.8269C94.7239 40.5 93.685 40.1923 92.646 39.9423Z" fill="url(#paint12_linear_19_1703)"/>
<path style="mix-blend-mode:multiply" opacity="0.3" d="M88.1824 38.6346C77.5037 35.9558 66.2109 37.3236 56.4813 42.4742C46.7518 47.6248 39.2744 56.1935 35.491 66.5281C31.7075 76.8628 31.8859 88.2316 35.9917 98.4426C40.0974 108.654 47.8399 116.984 57.7263 121.827L58.265 122.077L57.1106 121.692L56.0717 121.308L57.2068 121.673L56.6681 121.423C46.7519 116.591 38.9817 108.253 34.8613 98.0242C30.7409 87.7953 30.5633 76.4022 34.3628 66.0499C38.1623 55.6976 45.6687 47.1221 55.4294 41.9832C65.1902 36.8442 76.5111 35.5072 87.2012 38.2308C88.2402 38.5 89.2791 38.7884 90.318 39.1346C89.2214 38.6154 88.1055 38.1538 86.9703 37.7308H87.2205C88.6442 38.25 90.0294 38.8077 91.3762 39.4423C90.2603 39.1923 89.2214 38.8846 88.1824 38.6346Z" fill="url(#paint13_linear_19_1703)"/>
<path style="mix-blend-mode:screen" opacity="0.21" d="M117.273 95.5577C119.123 90.37 119.929 84.8682 119.646 79.3681C119.364 73.868 117.997 68.4778 115.625 63.507C113.253 58.5362 109.922 54.0825 105.823 50.4017C101.725 46.7208 96.9394 43.8853 91.7417 42.0577L90.6451 41.6923C89.6639 41.3654 88.7211 41.0769 87.6822 40.8462C77.6316 38.3052 66.9954 39.5785 57.8294 44.4199C48.6633 49.2613 41.6181 57.3271 38.0554 67.0584C34.4928 76.7897 34.6655 87.4956 38.5404 97.107C42.4152 106.718 49.717 114.553 59.0346 119.096C60.0543 119.596 61.1124 120.058 62.1898 120.481L63.4789 120.962C73.9837 124.7 85.5425 124.125 95.6246 119.364C105.707 114.603 113.491 106.043 117.273 95.5577Z" fill="url(#paint14_linear_19_1703)"/>
<g style="mix-blend-mode:multiply">
<path style="mix-blend-mode:multiply" opacity="0.06" d="M90.3565 39.8269H90.2026C79.7956 37.251 68.8082 38.512 59.2562 43.3787C49.7041 48.2455 42.2279 56.3915 38.1989 66.3226C34.1699 76.2537 33.8585 87.3038 37.3216 97.4458C40.7847 107.588 47.7902 116.142 57.0529 121.538L56.7258 121.385C46.8321 116.544 39.0828 108.212 34.9734 97.9967C30.8641 87.7812 30.6859 76.4064 34.4733 66.0674C38.2608 55.7284 45.7454 47.158 55.4826 42.0103C65.2199 36.8626 76.5197 35.5025 87.2012 38.1923C88.2594 38.4423 89.2983 38.75 90.3565 39.0962L91.5301 39.4808C92.9538 40 94.3199 40.5577 95.6666 41.1923C94.6277 40.8654 93.5888 40.5577 92.5691 40.3077C91.5494 40.0577 91.0491 39.9615 90.3565 39.8269Z" fill="url(#paint15_linear_19_1703)"/>
</g>
<path style="mix-blend-mode:multiply" opacity="0.09" d="M55.9755 118.231C57.0529 118.769 58.188 119.25 59.3231 119.712L60.7276 120.231C71.937 124.211 84.2669 123.592 95.0216 118.511C105.776 113.43 114.081 104.299 118.119 93.1154C120.664 85.9675 121.326 78.2855 120.043 70.8077C121.975 79.1078 121.468 87.7892 118.581 95.8077C114.558 106.987 106.27 116.119 95.5299 121.207C84.7896 126.296 72.4706 126.926 61.2663 122.962L59.8811 122.442C58.7267 122 57.6108 121.5 56.5334 120.981C50.1251 117.854 44.5573 113.242 40.2936 107.528C36.03 101.815 33.1941 95.1655 32.0222 88.1346C33.5218 94.617 36.4505 100.683 40.5945 105.89C44.7386 111.096 49.9934 115.313 55.9755 118.231Z" fill="url(#paint16_linear_19_1703)"/>
<g style="mix-blend-mode:multiply" opacity="0.27">
<path d="M58.7267 128.692C71.6806 133.312 85.9389 132.609 98.3748 126.737C110.811 120.864 120.409 110.301 125.065 97.3654C129.037 86.2411 129.037 74.0858 125.065 62.9615C127.983 69.0844 129.655 75.7254 129.985 82.4995C130.316 89.2735 129.297 96.0456 126.989 102.423C123.373 112.523 116.718 121.256 107.936 127.421C99.1537 133.587 88.677 136.882 77.9453 136.855C67.2136 136.827 56.7538 133.479 48.0035 127.268C39.2533 121.058 32.6421 112.291 29.0786 102.173C32.0223 108.332 36.1582 113.847 41.2471 118.399C46.336 122.951 52.277 126.449 58.7267 128.692Z" fill="#FAFAFA"/>
</g>
<g style="mix-blend-mode:screen" opacity="0.23">
<path d="M24.9614 72.5192C26.7081 62.8919 31.1408 53.9539 37.7485 46.7351C44.3561 39.5163 52.87 34.3105 62.3088 31.7177C71.7476 29.125 81.7273 29.2507 91.0978 32.0804C100.468 34.9101 108.848 40.3286 115.272 47.7115C111.252 41.9431 106.1 37.0526 100.13 33.3377C94.1591 29.6229 87.4946 27.1615 80.5418 26.1033C73.5891 25.0451 66.4936 25.4123 59.6874 27.1825C52.8811 28.9527 46.5065 32.0889 40.9516 36.4002C35.3966 40.7115 30.7776 46.1076 27.3757 52.2602C23.9737 58.4127 21.86 65.1929 21.1633 72.188C20.4665 79.1831 21.2013 86.2467 23.3228 92.9489C25.4443 99.6511 28.9083 105.852 33.5037 111.173C29.587 105.618 26.8147 99.3398 25.3481 92.7038C23.8816 86.0678 23.7501 79.2065 24.9614 72.5192Z" fill="#FAFAFA"/>
</g>
<path style="mix-blend-mode:screen" opacity="0.35" d="M115.618 95.7115C118.405 87.939 118.823 79.515 116.821 71.5047C114.818 63.4944 110.484 56.2575 104.367 50.709C98.2497 45.1605 90.624 41.5495 82.4538 40.3326C74.2836 39.1157 65.9359 40.3475 58.4661 43.8724C50.9963 47.3972 44.7398 53.0567 40.4877 60.1354C36.2356 67.2141 34.1788 75.3941 34.5773 83.6411C34.9759 91.8881 37.8119 99.8318 42.7269 106.468C47.6418 113.104 54.4149 118.134 62.1898 120.923C67.3518 122.807 72.8364 123.649 78.3261 123.399C83.8157 123.149 89.2012 121.813 94.1706 119.468C99.14 117.123 103.594 113.816 107.276 109.738C110.958 105.66 113.793 100.893 115.618 95.7115ZM115.618 95.7115C112.934 103.374 108.035 110.067 101.541 114.943C95.0471 119.819 87.2513 122.659 79.1414 123.102C71.0315 123.544 62.9726 121.571 55.986 117.431C48.9995 113.291 43.3998 107.171 39.8967 99.8464C36.3935 92.5221 35.1447 84.3231 36.3083 76.2885C37.4719 68.254 40.9957 60.7456 46.433 54.7149C51.8703 48.6842 58.9764 44.4027 66.8507 42.413C74.725 40.4233 83.013 40.815 90.6643 43.5385C100.85 47.2022 109.177 54.7347 113.839 64.4998C118.5 74.2649 119.119 85.4739 115.56 95.6923L115.618 95.7115Z" fill="url(#paint17_linear_19_1703)"/>
<path style="mix-blend-mode:multiply" opacity="0.02" d="M141.572 47.1923C155.598 75.6538 150.191 105.635 133.184 126.385C146.805 105.231 149.422 76.7308 134.511 50.0962C129.638 41.4338 122.931 33.9394 114.859 28.1366C106.787 22.3338 97.545 18.3624 87.7784 16.5C57.6878 10.75 31.4066 22.1539 15.3608 41.6923C29.8482 19.0962 56.7643 4.59616 88.3171 9.00001C99.6351 10.5477 110.403 14.8362 119.685 21.4926C128.966 28.1489 136.48 36.9713 141.572 47.1923Z" fill="url(#paint18_linear_19_1703)"/>
<path style="mix-blend-mode:screen" opacity="0.38" d="M53.3974 73.5192C47.9526 88.75 54.0515 111.75 53.3012 111.481C38.987 106.423 33.7346 84.5577 39.5642 68.1923C45.3937 51.8269 63.729 37.4231 78.0432 42.5192C78.9475 42.8462 58.9191 58.1154 53.3974 73.5192Z" fill="url(#paint19_linear_19_1703)"/>
<path style="mix-blend-mode:screen" opacity="0.67" d="M124.641 98.6346C128.149 89.004 128.689 78.544 126.192 68.6036C123.696 58.6632 118.277 49.6984 110.635 42.8654C109.226 42.7692 107.812 42.7692 106.402 42.8654C112.852 49.5171 117.399 57.7756 119.571 66.7807C121.743 75.7859 121.459 85.2083 118.75 94.0667C116.041 102.925 111.005 110.895 104.167 117.148C97.329 123.4 88.9391 127.705 79.871 129.615C81.3883 130.642 82.9836 131.549 84.6424 132.327C93.6996 130.76 102.177 126.815 109.206 120.894C116.235 114.974 121.562 107.291 124.641 98.6346Z" fill="url(#paint20_linear_19_1703)"/>
<path d="M104.517 121C104.331 120.875 104.176 120.708 104.066 120.513C103.955 120.317 103.892 120.099 103.881 119.875C103.869 119.651 103.911 119.427 104.001 119.222C104.091 119.017 104.229 118.835 104.401 118.692C107.779 116.281 110.698 113.285 113.021 109.846C114.09 108.281 114.998 106.612 115.733 104.865C115.833 104.692 115.966 104.54 116.125 104.419C116.284 104.297 116.465 104.209 116.659 104.159C116.853 104.109 117.054 104.098 117.252 104.127C117.45 104.156 117.64 104.224 117.811 104.327L118.504 104.692C118.848 104.859 119.115 105.151 119.251 105.509C119.387 105.866 119.381 106.262 119.235 106.615C117.58 109.692 112.886 117.462 106.287 121.077C106.009 121.227 105.693 121.292 105.379 121.265C105.064 121.238 104.765 121.119 104.517 120.923V121Z" fill="white"/>
<path opacity="0.95" d="M120.62 100.25C120.397 100.236 120.18 100.171 119.987 100.059C119.794 99.9467 119.629 99.7914 119.506 99.605C119.382 99.4185 119.304 99.206 119.277 98.9842C119.251 98.7624 119.276 98.5374 119.35 98.3269C121.115 94.4699 122.171 90.327 122.467 86.0962C122.627 84.1738 122.582 82.2398 122.333 80.3269C122.335 80.1232 122.378 79.9221 122.459 79.7351C122.54 79.5481 122.657 79.3791 122.804 79.2377C122.951 79.0964 123.124 78.9856 123.314 78.9118C123.504 78.838 123.707 78.8026 123.91 78.8077H124.718C124.92 78.7893 125.122 78.8111 125.315 78.872C125.508 78.9329 125.686 79.0317 125.841 79.1624C125.995 79.2931 126.121 79.4532 126.212 79.6334C126.304 79.8135 126.358 80.0101 126.373 80.2115C126.373 83.7692 126.373 93.0385 122.275 99.5962C122.099 99.8654 121.85 100.079 121.557 100.212C121.264 100.345 120.939 100.391 120.62 100.346V100.25Z" fill="white"/>
<path style="mix-blend-mode:multiply" opacity="0.02" d="M3.39386 100.519C5.98626 110.285 10.5131 119.43 16.7063 127.415C22.8995 135.4 30.633 142.061 39.4486 147.003C48.2642 151.946 57.9827 155.07 68.0282 156.19C78.0738 157.31 88.242 156.403 97.9306 153.524C107.619 150.644 116.631 145.85 124.432 139.426C132.233 133.001 138.665 125.077 143.346 116.123C148.028 107.169 150.864 97.3663 151.686 87.2965C152.508 77.2268 151.3 67.0945 148.133 57.5C153.003 76.4257 150.344 96.5017 140.715 113.509C131.085 130.516 115.235 143.13 96.4954 148.7C77.7557 154.269 57.5854 152.361 40.2237 143.377C22.8619 134.392 9.66051 119.03 3.39386 100.519Z" fill="url(#paint21_linear_19_1703)"/>
<defs>
<linearGradient id="paint0_linear_19_1703" x1="13.4723" y1="96.4223" x2="172.571" y2="69.0654" gradientUnits="userSpaceOnUse">
<stop stop-color="#FAFAFA"/>
<stop offset="1" stop-color="#ECECEC"/>
</linearGradient>
<radialGradient id="paint1_radial_19_1703" cx="0" cy="0" r="1" gradientUnits="userSpaceOnUse" gradientTransform="translate(1.6221 89.41) rotate(19.3978) scale(85.4944 84.6001)">
<stop stop-color="#F7F7F6"/>
<stop offset="1" stop-color="white"/>
</radialGradient>
<linearGradient id="paint2_linear_19_1703" x1="-52.1614" y1="55.7469" x2="4.86074" y2="66.7038" gradientUnits="userSpaceOnUse">
<stop stop-color="#FCFCFC"/>
<stop offset="1" stop-color="white"/>
</linearGradient>
<linearGradient id="paint3_linear_19_1703" x1="73.1764" y1="85.3823" x2="164.667" y2="117.733" gradientUnits="userSpaceOnUse">
<stop stop-color="#F8F8F8"/>
<stop offset="1" stop-color="white"/>
</linearGradient>
<linearGradient id="paint4_linear_19_1703" x1="24.3399" y1="81.1973" x2="63.1573" y2="84.8706" gradientUnits="userSpaceOnUse">
<stop/>
<stop offset="0.91" stop-color="white"/>
</linearGradient>
<linearGradient id="paint5_linear_19_1703" x1="63.158" y1="102.386" x2="147.066" y2="-9.22516" gradientUnits="userSpaceOnUse">
<stop stop-color="white"/>
<stop offset="1" stop-color="#F5F5F5"/>
</linearGradient>
<linearGradient id="paint6_linear_19_1703" x1="52.4847" y1="132.277" x2="51.1478" y2="131.507" gradientUnits="userSpaceOnUse">
<stop stop-color="white"/>
<stop offset="1"/>
</linearGradient>
<linearGradient id="paint7_linear_19_1703" x1="38220.5" y1="12562.8" x2="36011.8" y2="12469.7" gradientUnits="userSpaceOnUse">
<stop stop-color="white"/>
<stop offset="1"/>
</linearGradient>
<linearGradient id="paint8_linear_19_1703" x1="21182.4" y1="12547.7" x2="21518.7" y2="12608" gradientUnits="userSpaceOnUse">
<stop stop-color="white"/>
<stop offset="1"/>
</linearGradient>
<linearGradient id="paint9_linear_19_1703" x1="117.623" y1="110.119" x2="88.5433" y2="93.5613" gradientUnits="userSpaceOnUse">
<stop stop-color="white"/>
<stop offset="0.15" stop-color="#CCCCCC"/>
<stop offset="0.39" stop-color="#848484"/>
<stop offset="0.6" stop-color="#4C4C4C"/>
<stop offset="0.77" stop-color="#222222"/>
<stop offset="0.92" stop-color="#090909"/>
<stop offset="1"/>
</linearGradient>
<linearGradient id="paint10_linear_19_1703" x1="117.707" y1="110.905" x2="114.115" y2="108.849" gradientUnits="userSpaceOnUse">
<stop stop-color="white"/>
<stop offset="0.32" stop-color="#E0E0E0"/>
<stop offset="1"/>
</linearGradient>
<linearGradient id="paint11_linear_19_1703" x1="39.1216" y1="109.355" x2="113.171" y2="61.6943" gradientUnits="userSpaceOnUse">
<stop stop-color="white"/>
<stop offset="0.17" stop-color="#BEBEBE"/>
<stop offset="0.33" stop-color="#848484"/>
<stop offset="0.49" stop-color="#555555"/>
<stop offset="0.64" stop-color="#303030"/>
<stop offset="0.78" stop-color="#161616"/>
<stop offset="0.9" stop-color="#060606"/>
<stop offset="1"/>
</linearGradient>
<linearGradient id="paint12_linear_19_1703" x1="31244.7" y1="10609.5" x2="29117.6" y2="10756.3" gradientUnits="userSpaceOnUse">
<stop stop-color="white"/>
<stop offset="0.17" stop-color="#BEBEBE"/>
<stop offset="0.33" stop-color="#848484"/>
<stop offset="0.49" stop-color="#555555"/>
<stop offset="0.64" stop-color="#303030"/>
<stop offset="0.78" stop-color="#161616"/>
<stop offset="0.9" stop-color="#060606"/>
<stop offset="1"/>
</linearGradient>
<linearGradient id="paint13_linear_19_1703" x1="29207.2" y1="10405.5" x2="27395.1" y2="10524.5" gradientUnits="userSpaceOnUse">
<stop stop-color="white"/>
<stop offset="0.17" stop-color="#BEBEBE"/>
<stop offset="0.33" stop-color="#848484"/>
<stop offset="0.49" stop-color="#555555"/>
<stop offset="0.64" stop-color="#303030"/>
<stop offset="0.78" stop-color="#161616"/>
<stop offset="0.9" stop-color="#060606"/>
<stop offset="1"/>
</linearGradient>
<linearGradient id="paint14_linear_19_1703" x1="40587.9" y1="8786.05" x2="42808.6" y2="11707.7" gradientUnits="userSpaceOnUse">
<stop stop-color="white"/>
<stop offset="0.17" stop-color="#BEBEBE"/>
<stop offset="0.33" stop-color="#848484"/>
<stop offset="0.49" stop-color="#555555"/>
<stop offset="0.64" stop-color="#303030"/>
<stop offset="0.78" stop-color="#161616"/>
<stop offset="0.9" stop-color="#060606"/>
<stop offset="1"/>
</linearGradient>
<linearGradient id="paint15_linear_19_1703" x1="30228" y1="8101.58" x2="30907.5" y2="9113.15" gradientUnits="userSpaceOnUse">
<stop stop-color="white"/>
<stop offset="0.17" stop-color="#BEBEBE"/>
<stop offset="0.33" stop-color="#848484"/>
<stop offset="0.49" stop-color="#555555"/>
<stop offset="0.64" stop-color="#303030"/>
<stop offset="0.78" stop-color="#161616"/>
<stop offset="0.9" stop-color="#060606"/>
<stop offset="1"/>
</linearGradient>
<linearGradient id="paint16_linear_19_1703" x1="44756.4" y1="5997.03" x2="45091.4" y2="5047.16" gradientUnits="userSpaceOnUse">
<stop stop-color="white"/>
<stop offset="0.17" stop-color="#BEBEBE"/>
<stop offset="0.33" stop-color="#848484"/>
<stop offset="0.49" stop-color="#555555"/>
<stop offset="0.64" stop-color="#303030"/>
<stop offset="0.78" stop-color="#161616"/>
<stop offset="0.9" stop-color="#060606"/>
<stop offset="1"/>
</linearGradient>
<linearGradient id="paint17_linear_19_1703" x1="40966.5" y1="8846.82" x2="41445.5" y2="10689.4" gradientUnits="userSpaceOnUse">
<stop stop-color="white"/>
<stop offset="1"/>
</linearGradient>
<linearGradient id="paint18_linear_19_1703" x1="66680.7" y1="16627.9" x2="66949.1" y2="18932.9" gradientUnits="userSpaceOnUse">
<stop stop-color="white"/>
<stop offset="0.17" stop-color="#BEBEBE"/>
<stop offset="0.33" stop-color="#848484"/>
<stop offset="0.49" stop-color="#555555"/>
<stop offset="0.64" stop-color="#303030"/>
<stop offset="0.78" stop-color="#161616"/>
<stop offset="0.9" stop-color="#060606"/>
<stop offset="1"/>
</linearGradient>
<linearGradient id="paint19_linear_19_1703" x1="19464" y1="8514.28" x2="19839.4" y2="8523.35" gradientUnits="userSpaceOnUse">
<stop stop-color="white"/>
<stop offset="0.17" stop-color="#BEBEBE"/>
<stop offset="0.33" stop-color="#848484"/>
<stop offset="0.49" stop-color="#555555"/>
<stop offset="0.64" stop-color="#303030"/>
<stop offset="0.78" stop-color="#161616"/>
<stop offset="0.9" stop-color="#060606"/>
<stop offset="1"/>
</linearGradient>
<linearGradient id="paint20_linear_19_1703" x1="25041.7" y1="10731.3" x2="24529.7" y2="10774.6" gradientUnits="userSpaceOnUse">
<stop stop-color="white"/>
<stop offset="0.17" stop-color="#BEBEBE"/>
<stop offset="0.33" stop-color="#848484"/>
<stop offset="0.49" stop-color="#555555"/>
<stop offset="0.64" stop-color="#303030"/>
<stop offset="0.78" stop-color="#161616"/>
<stop offset="0.9" stop-color="#060606"/>
<stop offset="1"/>
</linearGradient>
<linearGradient id="paint21_linear_19_1703" x1="-8841.65" y1="6067.31" x2="-8501.14" y2="7732.98" gradientUnits="userSpaceOnUse">
<stop stop-color="white"/>
<stop offset="0.17" stop-color="#BEBEBE"/>
<stop offset="0.33" stop-color="#848484"/>
<stop offset="0.49" stop-color="#555555"/>
<stop offset="0.64" stop-color="#303030"/>
<stop offset="0.78" stop-color="#161616"/>
<stop offset="0.9" stop-color="#060606"/>
<stop offset="1"/>
</linearGradient>
</defs>
</svg>
